<?xml version="1.0" standalone="no"?>
<!DOCTYPE svg PUBLIC "-//W3C//DTD SVG 20010904//EN"
 "http://www.w3.org/TR/2001/REC-SVG-20010904/DTD/svg10.dtd">
<svg version="1.0" xmlns="http://www.w3.org/2000/svg"
 width="700.000000pt" height="700.000000pt" viewBox="0 0 700.000000 700.000000"
 preserveAspectRatio="xMidYMid meet">
<metadata>
Created by potrace 1.14, written by Peter Selinger 2001-2017
</metadata>
<g transform="translate(0.000000,700.000000) scale(0.100000,-0.100000)"
fill="#000000" stroke="none">
<path d="M2663 6766 c-75 -124 -169 -234 -438 -512 -281 -290 -337 -349 -390
-419 -247 -322 -192 -860 118 -1158 60 -58 257 -190 257 -173 0 3 -32 41 -71
83 -81 89 -177 207 -197 242 -8 13 -22 39 -33 58 -27 48 -58 143 -66 205 -23
179 7 332 102 515 47 89 107 187 124 203 3 3 21 25 40 50 36 47 222 271 232
280 20 18 178 222 224 291 77 117 145 284 145 362 0 40 -11 33 -47 -27z"/>
<path d="M4296 6773 c9 -55 45 -176 61 -206 52 -104 166 -253 465 -612 9 -11
32 -40 52 -65 20 -25 41 -51 46 -57 70 -85 159 -244 199 -358 66 -188 67 -364
4 -525 -42 -106 -108 -201 -242 -350 -68 -76 -52 -78 52 -8 141 95 257 241
311 393 48 134 59 207 58 375 0 100 -6 145 -26 224 -54 209 -100 271 -476 646
-264 263 -345 355 -441 496 -53 78 -71 92 -63 47z"/>
<path d="M1509 5498 c-114 -214 -130 -270 -131 -469 0 -81 3 -160 6 -175 4
-16 8 -38 10 -49 15 -79 100 -280 155 -365 52 -81 346 -372 418 -413 10 -6 22
0 39 20 30 33 144 204 168 250 15 31 15 33 -6 53 -13 11 -57 42 -98 67 -281
173 -419 346 -485 608 -31 125 -36 176 -36 368 1 92 -1 167 -3 167 -2 0 -18
-28 -37 -62z"/>
<path d="M5469 5485 c0 -11 -2 -67 -4 -125 -15 -464 -110 -649 -455 -885 -131
-90 -173 -126 -161 -138 6 -6 11 -17 11 -23 0 -15 122 -197 157 -235 14 -15
30 -26 36 -25 42 7 134 82 260 211 171 174 268 361 301 580 18 119 13 332 -9
405 -18 58 -83 188 -115 230 -18 23 -20 23 -21 5z"/>
<path d="M3290 4627 c-3 -3 -32 -8 -65 -12 -66 -7 -112 -13 -165 -20 -19 -2
-64 -7 -100 -10 -36 -3 -76 -8 -90 -10 -14 -2 -45 -7 -70 -10 -67 -9 -82 -15
-113 -44 -77 -70 -145 -206 -181 -359 -40 -166 -39 -167 69 -82 112 89 123
101 219 228 42 56 80 102 84 103 44 6 67 3 84 -10 22 -18 25 -56 29 -342 2
-131 5 -166 21 -201 l19 -42 24 49 c13 28 66 138 118 245 51 107 100 201 109
208 22 17 75 22 95 7 18 -14 20 -39 24 -301 1 -116 7 -181 20 -230 20 -79 64
-184 77 -184 11 0 65 101 81 150 15 47 20 109 26 334 3 104 10 197 16 208 15
29 56 41 87 26 22 -11 39 -45 97 -188 64 -159 163 -340 185 -340 4 0 16 19 25
43 15 35 18 82 20 291 2 155 7 252 14 259 6 6 29 11 53 11 l42 1 96 -127 c102
-135 130 -162 224 -210 l58 -30 -4 84 c-3 63 -11 97 -32 143 -34 76 -148 248
-181 273 -29 23 -95 35 -325 57 -121 12 -167 17 -200 21 -48 7 -484 16 -490
11z"/>
<path d="M4511 4483 c17 -32 47 -86 66 -119 33 -61 57 -149 68 -254 3 -30 8
-64 10 -75 9 -42 17 -205 11 -205 -13 0 -289 141 -340 174 -28 18 -64 46 -81
61 -78 72 -70 74 -71 -23 0 -48 -8 -116 -18 -152 -25 -94 -109 -350 -116 -350
-5 0 -171 222 -265 355 l-40 56 -6 -38 c-4 -21 -10 -60 -14 -88 -3 -27 -17
-83 -31 -125 -29 -86 -164 -362 -180 -367 -11 -4 -114 196 -163 316 -41 98
-59 182 -60 284 -1 31 -4 57 -8 57 -5 0 -37 -52 -73 -116 -66 -118 -184 -269
-211 -269 -19 0 -64 98 -89 194 -22 84 -25 100 -41 236 -6 50 -13 96 -15 103
-2 7 -30 -14 -66 -51 -63 -64 -194 -149 -346 -224 -101 -51 -105 -42 -67 167
2 14 7 45 10 70 14 103 50 230 86 303 22 43 39 87 39 98 0 19 -1 19 -25 2 -24
-17 -224 -317 -314 -470 l-43 -73 29 -62 c18 -40 28 -78 27 -103 -2 -56 -13
-213 -18 -255 -8 -62 -16 -134 -21 -175 -5 -44 -11 -92 -19 -145 -23 -142 -35
-234 -31 -241 3 -4 18 -1 33 7 52 27 54 24 125 -179 45 -128 82 -196 151 -277
68 -80 76 -90 76 -94 0 -3 -13 -7 -30 -11 -16 -4 -30 -11 -30 -15 0 -5 36 -83
81 -172 115 -232 153 -326 189 -468 34 -134 58 -204 115 -344 44 -105 43 -122
-12 -260 -56 -140 -54 -194 21 -416 33 -96 66 -180 73 -187 19 -15 108 -9 383
27 163 21 363 23 485 4 50 -7 113 -16 140 -19 28 -3 75 -10 105 -15 127 -21
146 -21 162 -3 21 23 41 72 90 218 55 163 54 205 -4 395 l-45 145 27 55 c61
122 126 307 145 411 17 92 74 234 184 460 65 133 79 184 49 184 -35 0 -29 17
29 87 88 107 106 138 168 293 74 184 77 187 122 179 l36 -7 -7 67 c-7 79 -14
123 -26 191 -15 79 -33 231 -46 375 -2 25 -4 94 -4 153 -1 92 2 114 19 143 40
67 34 80 -129 324 -136 203 -143 213 -176 253 -26 32 -68 57 -96 57 -5 0 5
-26 23 -57z m-2050 -1219 c205 -99 379 -319 444 -560 37 -137 45 -214 40 -429
-2 -115 -6 -219 -8 -230 -2 -11 -8 -47 -12 -80 -8 -68 -18 -56 -29 35 -4 30
-9 71 -11 90 -3 19 -7 58 -10 85 -3 28 -8 64 -10 80 -3 17 -7 48 -10 70 -23
170 -56 305 -78 324 -13 11 -41 16 -129 25 -102 11 -195 65 -273 157 -47 56
-132 195 -137 224 -3 19 2 20 67 19 82 -2 148 -25 255 -88 41 -24 77 -42 78
-41 14 13 -102 181 -184 267 -82 87 -81 94 7 52z m2170 9 c-5 -10 -18 -27 -28
-38 -23 -25 -113 -139 -183 -230 -29 -38 -58 -76 -64 -84 -9 -12 -7 -12 14 -1
14 7 48 28 77 46 121 77 209 109 307 113 l67 2 -22 -43 c-21 -43 -86 -154
-101 -173 -44 -57 -108 -119 -144 -139 -52 -29 -85 -37 -203 -51 -39 -4 -70
-14 -81 -25 -16 -16 -52 -134 -63 -205 -3 -16 -10 -61 -17 -100 -15 -96 -18
-113 -25 -169 -20 -158 -53 -292 -55 -226 -1 14 -3 39 -5 55 -24 204 -28 423
-9 540 18 117 57 244 100 325 78 148 228 308 356 379 82 45 93 49 79 24z
m-775 -1736 c4 -4 14 -7 21 -7 19 0 154 -59 170 -74 9 -8 -31 -11 -165 -12
-134 0 -195 -5 -249 -18 -93 -23 -191 -24 -273 -3 -90 23 -116 26 -272 26
-125 1 -168 10 -120 24 9 3 53 21 97 39 l80 34 352 0 c193 -1 355 -5 359 -9z
m-710 -507 c-1 -103 -4 -192 -8 -195 -10 -10 -94 40 -113 67 -28 41 -19 97 33
199 61 119 75 141 83 128 3 -6 5 -95 5 -199z m803 121 c96 -149 92 -237 -12
-306 -53 -34 -55 -25 -57 195 -1 227 -4 223 69 111z"/>
<path d="M2353 2990 c14 -100 106 -221 177 -235 28 -5 25 3 -16 43 -20 20 -48
61 -61 91 -35 80 -36 82 -72 110 l-33 25 5 -34z"/>
<path d="M4646 2973 c-14 -15 -33 -44 -42 -63 -31 -70 -40 -84 -70 -117 -17
-18 -26 -33 -18 -33 24 0 97 65 135 120 59 84 55 157 -5 93z"/>
<path d="M5455 3855 c-108 -30 -353 -114 -388 -132 -34 -17 -46 -46 -53 -130
l-5 -65 38 6 c21 3 81 14 133 25 52 10 109 22 125 24 36 7 265 54 465 97 80
17 169 36 198 42 28 6 52 14 52 18 0 14 -215 86 -355 120 -84 20 -127 19 -210
-5z"/>
<path d="M1334 3850 c-82 -21 -280 -87 -308 -102 -23 -12 -9 -23 39 -31 17 -3
109 -22 205 -42 308 -64 720 -145 737 -145 14 0 15 10 9 82 -4 45 -11 87 -17
94 -12 15 -191 81 -348 129 -132 41 -207 44 -317 15z"/>
<path d="M850 3675 c23 -26 73 -73 124 -119 37 -32 258 -190 351 -250 84 -54
93 -57 135 -53 46 6 233 54 423 108 171 50 148 58 -146 56 -117 -2 -238 1
-269 5 -45 6 -117 37 -320 137 -145 72 -276 133 -293 137 l-30 7 25 -28z"/>
<path d="M5910 3574 c-135 -69 -267 -131 -295 -139 -69 -20 -110 -23 -342 -26
-187 -2 -252 -9 -213 -23 14 -5 125 -34 160 -41 8 -2 87 -22 175 -45 172 -45
232 -47 298 -13 45 22 179 127 334 260 129 110 169 153 141 153 -7 -1 -123
-57 -258 -126z"/>
<path d="M5050 2887 c-74 -114 -123 -223 -126 -279 -2 -54 19 -151 66 -308 17
-58 36 -120 41 -138 6 -18 14 -30 19 -27 13 8 49 126 64 212 13 77 15 341 3
393 -4 14 -12 48 -18 75 -6 28 -17 60 -23 72 l-11 23 -15 -23z"/>
<path d="M1976 2861 c-8 -13 -36 -147 -43 -211 -12 -99 -5 -313 11 -339 3 -4
8 -22 11 -39 6 -35 40 -128 55 -152 6 -10 12 -11 18 -5 9 10 62 218 97 375 9
41 18 80 20 86 5 16 -36 103 -98 207 -50 85 -60 96 -71 78z"/>
<path d="M4778 2423 c-28 -31 -176 -327 -184 -368 -7 -42 9 -123 71 -350 37
-136 50 -170 64 -179 18 -11 81 135 97 224 47 268 40 518 -18 660 -13 31 -14
31 -30 13z"/>
<path d="M2252 2370 c-33 -102 -48 -400 -28 -545 17 -114 58 -239 100 -299
l20 -29 24 64 c39 103 103 320 108 369 5 36 -1 62 -30 133 -52 127 -124 271
-156 308 l-27 33 -11 -34z"/>
<path d="M4470 1717 c0 -2 -25 -76 -56 -163 -62 -177 -65 -216 -26 -337 17
-54 19 -56 34 -40 55 63 91 216 91 389 0 65 -20 154 -34 154 -5 0 -9 -2 -9 -3z"/>
<path d="M2554 1663 c-3 -16 -16 -65 -29 -110 l-22 -82 57 -139 c78 -191 75
-188 108 -114 43 97 41 113 -44 347 -26 69 -50 125 -55 125 -5 0 -11 -12 -15
-27z"/>
<path d="M2992 431 l-74 -16 41 -61 c23 -34 47 -67 55 -73 12 -10 117 -36 186
-46 14 -2 72 -11 130 -20 95 -16 205 -20 285 -11 44 5 135 17 154 21 9 1 36 6
61 9 80 13 154 37 187 62 44 33 90 111 74 127 -8 8 -82 10 -254 8 -406 -5
-451 -5 -492 3 -83 16 -277 14 -353 -3z"/>
</g>
</svg>
