<?xml version="1.0" standalone="no"?>
<!DOCTYPE svg PUBLIC "-//W3C//DTD SVG 20010904//EN"
 "http://www.w3.org/TR/2001/REC-SVG-20010904/DTD/svg10.dtd">
<svg version="1.0" xmlns="http://www.w3.org/2000/svg"
 width="700.000000pt" height="700.000000pt" viewBox="0 0 700.000000 700.000000"
 preserveAspectRatio="xMidYMid meet">
<metadata>
Created by potrace 1.14, written by Peter Selinger 2001-2017
</metadata>
<g transform="translate(0.000000,700.000000) scale(0.100000,-0.100000)"
fill="#000000" stroke="none">
<path d="M1957 6618 c-14 -18 -150 -204 -303 -413 l-278 -380 -23 -87 c-34
-132 -42 -210 -38 -358 5 -199 32 -291 127 -423 115 -162 229 -289 333 -372
28 -22 52 -43 55 -46 11 -12 157 -97 205 -118 90 -41 183 -72 333 -111 31 -8
42 -16 42 -30 0 -10 -4 -21 -8 -24 -4 -2 -46 5 -92 16 -47 11 -94 21 -105 24
-12 2 -110 24 -219 49 -108 25 -208 45 -220 45 -12 0 -101 -29 -197 -64 -96
-35 -194 -70 -218 -79 l-44 -14 137 -140 c75 -77 144 -149 154 -160 9 -10 65
-54 123 -96 l107 -77 301 0 c165 0 301 -3 302 -7 5 -45 12 -153 35 -534 6
-105 4 -126 -21 -232 -22 -91 -37 -132 -69 -182 -48 -76 -268 -419 -397 -619
-54 -84 -88 -145 -84 -154 3 -9 76 -134 162 -279 164 -276 163 -276 329 -420
28 -24 164 -145 178 -158 6 -6 54 -48 106 -95 52 -46 100 -89 106 -95 11 -10
141 -126 176 -157 21 -18 163 -145 182 -163 6 -5 49 -44 96 -85 47 -41 87 -77
90 -80 3 -3 42 -39 88 -79 67 -61 86 -72 101 -65 16 7 341 291 361 315 3 3 70
64 150 134 80 71 161 143 180 161 19 17 85 75 145 129 61 54 131 116 156 139
25 23 81 73 125 111 156 138 171 158 331 433 l154 262 -118 185 c-65 102 -155
242 -200 312 -173 270 -208 328 -216 352 -17 58 -49 208 -50 231 0 28 11 232
18 325 12 160 18 253 18 283 l0 32 305 0 304 0 102 75 c66 48 157 130 254 231
84 85 152 159 152 162 0 4 -42 22 -93 40 -50 18 -114 42 -142 52 -27 10 -86
32 -129 48 l-80 29 -70 -18 c-39 -10 -84 -20 -101 -23 -35 -6 -312 -69 -401
-91 -77 -19 -74 -19 -74 10 0 20 7 26 43 35 225 58 413 141 546 240 92 70 228
207 293 295 4 6 18 24 31 40 93 117 127 177 147 255 11 45 24 100 28 123 13
85 7 294 -12 382 -36 166 -36 167 -119 280 -44 61 -181 248 -305 417 -199 274
-226 307 -243 298 -10 -6 -19 -12 -19 -14 0 -3 270 -557 382 -784 l42 -83 -13
-91 c-17 -118 -45 -237 -77 -321 -21 -55 -42 -84 -106 -152 -188 -199 -361
-263 -728 -271 l-185 -5 -130 40 c-71 22 -152 47 -180 55 -42 13 -118 16 -483
16 l-433 0 -167 -52 -167 -53 -185 0 c-103 1 -222 7 -267 14 -46 7 -84 13 -85
12 -11 -4 -181 64 -225 91 -134 81 -249 206 -292 317 -35 91 -86 329 -83 391
0 8 69 155 152 325 84 171 172 353 197 405 25 52 51 107 59 122 13 25 12 28
-5 38 -17 8 -24 5 -44 -22z m-153 -330 c-31 -62 -99 -200 -150 -307 -105 -216
-84 -197 -186 -170 l-38 10 38 50 c20 28 53 73 72 99 110 154 314 430 317 430
2 0 -22 -51 -53 -112z m3459 -50 c57 -79 148 -203 202 -276 53 -74 93 -137 89
-142 -5 -4 -31 -13 -57 -19 -37 -9 -52 -9 -63 0 -8 6 -14 15 -14 19 0 6 -251
527 -267 553 -2 4 -2 7 1 7 2 0 52 -64 109 -142z m-3720 -498 c4 -3 16 -60 28
-126 24 -143 32 -178 66 -267 14 -38 24 -69 22 -71 -46 -35 -251 -168 -254
-164 -8 8 -34 121 -43 184 -9 68 -8 195 2 264 9 55 35 191 41 207 3 8 20 7 67
-4 35 -9 66 -19 71 -23z m4063 -34 c35 -168 47 -329 29 -418 -24 -127 -39
-179 -51 -174 -11 4 -224 147 -243 162 -2 2 8 34 22 71 28 77 62 227 73 321 4
34 12 66 18 70 14 9 130 40 135 36 2 -2 9 -32 17 -68z m-3733 -653 l38 -30
-107 -144 c-59 -79 -109 -146 -111 -149 -12 -13 -268 310 -261 330 2 5 59 48
128 94 l124 86 76 -78 c41 -43 92 -92 113 -109z m3697 7 c0 -10 -171 -237
-219 -290 -26 -29 -43 -41 -49 -35 -5 6 -56 73 -112 149 l-103 140 34 25 c18
14 69 63 113 107 l79 82 129 -86 c70 -47 128 -88 128 -92z m-3572 -84 c132
-66 295 -96 557 -101 66 -2 123 -3 126 -4 3 -1 -16 -64 -43 -142 -42 -121 -60
-158 -131 -264 l-82 -122 -75 19 c-216 56 -395 138 -530 245 -45 35 -83 70
-86 78 -3 8 40 78 103 164 59 82 109 150 111 150 1 1 24 -10 50 -23z m3161
-126 c61 -82 111 -153 111 -158 0 -23 -178 -155 -277 -205 -113 -58 -352 -137
-408 -137 -14 0 -42 34 -97 118 -72 110 -128 238 -167 377 l-8 31 121 0 c259
1 445 36 581 108 17 9 31 16 32 16 0 0 51 -67 112 -150z m-1683 118 c1 -9 -3
-19 -9 -21 -7 -3 -118 -49 -247 -102 -230 -95 -563 -225 -567 -221 -6 5 78
242 90 252 6 7 85 34 173 61 l161 49 198 -1 c178 0 198 -2 201 -17z m509 -1
c28 -8 97 -30 155 -47 58 -17 110 -37 116 -43 10 -10 51 -123 84 -229 8 -26 7
-26 -18 -17 -15 6 -68 26 -117 44 -77 28 -305 120 -612 247 -50 20 -73 35 -73
47 0 15 18 17 208 15 155 -1 220 -5 257 -17z m-509 -268 l-1 -201 -169 -89
c-93 -49 -172 -87 -175 -84 -3 4 -43 86 -87 183 l-81 177 22 12 c20 11 232 99
420 174 39 16 70 28 71 29 0 0 0 -91 0 -201z m249 119 c94 -38 202 -83 242
-99 l71 -30 -38 -82 c-65 -142 -132 -282 -135 -285 -2 -3 -174 85 -290 149
l-50 28 -2 200 c-1 183 0 199 15 194 9 -4 94 -37 187 -75z m-715 -343 c83
-180 93 -208 104 -280 3 -16 12 -70 20 -120 21 -128 26 -165 23 -165 -2 0 -64
48 -138 106 -74 58 -167 131 -206 161 -69 52 -74 59 -93 122 -11 36 -33 111
-49 166 -17 54 -28 101 -26 103 8 8 260 100 268 98 5 -1 48 -87 97 -191z
m1222 140 l126 -47 -15 -51 c-9 -29 -26 -88 -40 -132 -13 -44 -25 -87 -27 -95
-12 -46 -36 -70 -191 -192 -93 -73 -187 -147 -209 -163 l-38 -29 6 44 c5 40
19 117 30 175 2 12 8 48 12 80 10 78 4 59 79 220 26 55 62 133 81 174 21 45
39 71 46 69 7 -3 70 -26 140 -53z m-1583 -236 c23 -78 38 -145 34 -150 -4 -4
-55 -35 -113 -68 l-105 -60 -3 103 -3 104 68 106 c37 58 71 106 74 106 3 0 24
-64 48 -141z m1783 94 c18 -27 38 -55 43 -64 6 -9 23 -37 38 -62 26 -43 28
-51 25 -146 l-3 -100 -110 64 c-128 74 -123 60 -75 218 17 56 34 110 36 120 3
9 7 17 9 17 2 0 19 -21 37 -47z m-956 -222 c-1 -106 -5 -184 -11 -189 -6 -5
-65 -46 -132 -91 -115 -76 -123 -80 -127 -59 -17 87 -58 359 -55 362 5 4 189
102 264 139 27 14 52 24 55 22 4 -2 6 -85 6 -184z m213 108 c86 -45 157 -83
159 -84 3 -2 -12 -101 -24 -165 -2 -14 -7 -41 -10 -60 -3 -19 -7 -46 -10 -60
-2 -14 -7 -41 -10 -60 -3 -19 -7 -36 -8 -37 -4 -4 -249 166 -257 178 -8 13
-10 369 -1 369 3 0 75 -37 161 -81z m-1935 -98 c4 -35 14 -114 22 -175 8 -61
17 -138 20 -171 3 -33 8 -63 11 -67 11 -19 -18 -5 -77 38 -60 42 -330 307
-330 323 0 11 334 130 341 122 4 -3 10 -35 13 -70z m291 24 c110 -25 223 -51
250 -57 28 -5 54 -14 58 -18 4 -4 -105 -92 -243 -195 -138 -103 -252 -186
-254 -184 -2 2 -11 65 -20 139 -10 74 -19 149 -21 165 -2 17 -6 53 -10 80 -3
28 -8 67 -11 88 -7 46 -33 48 251 -18z m3159 13 c-3 -24 -7 -52 -9 -63 -1 -11
-13 -107 -26 -213 -13 -106 -27 -191 -31 -190 -26 9 -498 372 -491 378 4 5 82
25 173 45 91 20 208 47 260 60 134 33 130 33 124 -17z m234 -23 c89 -33 161
-62 160 -66 -2 -4 -57 -64 -123 -133 -99 -104 -254 -236 -278 -236 -3 0 -4 9
-2 19 2 11 6 46 10 78 6 65 16 140 20 163 2 8 9 66 16 128 8 71 16 111 23 109
6 -2 84 -30 174 -62z m-2577 -193 c75 -59 174 -137 221 -174 l86 -68 -74 -177
c-41 -97 -79 -180 -84 -183 -14 -9 -120 -4 -129 6 -4 5 -27 52 -51 104 -49
109 -90 197 -150 325 -79 167 -91 198 -83 205 17 16 108 70 118 70 6 0 71 -48
146 -108z m1490 72 c33 -19 59 -37 59 -39 0 -2 -19 -43 -41 -92 -23 -48 -89
-189 -146 -313 -57 -123 -106 -226 -108 -228 -9 -9 -127 -7 -133 3 -4 5 -39
87 -78 180 -67 158 -71 171 -55 187 28 29 426 338 435 338 4 0 35 -16 67 -36z
m-1936 -86 c2 -57 6 -139 10 -183 l6 -81 -260 1 c-204 0 -258 2 -248 12 25 25
482 361 486 358 2 -2 5 -50 6 -107z m2427 -74 c136 -103 248 -188 248 -188 0
-1 -117 -2 -261 -2 l-261 1 8 125 c4 69 8 153 8 188 0 34 3 62 5 62 2 0 116
-84 253 -186z m-2283 74 c5 -13 32 -72 61 -133 28 -60 65 -139 82 -175 17 -36
35 -74 40 -84 9 -17 8 -17 -20 2 -55 40 -125 64 -184 64 -47 0 -58 3 -59 17 0
9 -2 34 -4 56 -2 22 -6 83 -9 135 l-5 95 37 22 c47 28 51 28 61 1z m1941 0
l39 -23 -5 -70 c-3 -38 -7 -90 -9 -115 -2 -25 -3 -62 -4 -83 -1 -36 -2 -37
-33 -33 -47 5 -135 -20 -191 -54 -26 -17 -46 -27 -44 -22 8 12 87 183 87 186
0 10 111 236 115 236 4 0 24 -10 45 -22z m-1025 -650 l0 -592 -75 -1 c-57 0
-87 5 -123 21 -26 12 -51 24 -54 27 -3 4 -6 221 -6 484 l0 478 124 87 c68 48
126 87 129 88 3 0 6 -266 5 -592z m181 506 l124 -87 0 -483 0 -483 -47 -21
c-34 -15 -72 -22 -129 -24 l-82 -2 0 593 c0 326 2 593 5 593 2 0 60 -39 129
-86z m-486 -631 l0 -428 -36 -23 c-20 -13 -37 -22 -39 -20 -3 3 -11 119 -20
288 -2 36 -7 117 -11 180 -4 63 -7 127 -7 142 0 21 102 287 111 288 1 0 2
-192 2 -427z m721 285 c30 -73 53 -134 52 -138 0 -3 -4 -61 -8 -130 -3 -69 -8
-150 -10 -180 -2 -30 -7 -109 -11 -175 -3 -66 -8 -123 -11 -127 -2 -4 -18 2
-36 15 -18 12 -34 23 -36 25 -7 4 -7 842 0 842 3 0 30 -59 60 -132z m-1250 93
c26 -12 65 -38 87 -56 39 -34 102 -122 102 -142 0 -13 -68 -26 -123 -24 -70 2
-152 58 -180 123 -51 116 -48 133 21 126 26 -3 68 -15 93 -27z m1863 20 c9
-14 -21 -103 -50 -148 -50 -76 -180 -117 -267 -84 l-27 11 26 42 c51 83 122
144 203 173 42 16 107 19 115 6z m-1912 -251 c43 -27 62 -32 117 -33 36 -1 82
2 103 6 40 8 40 8 52 -88 3 -22 12 -87 20 -145 8 -58 17 -127 20 -155 6 -50
24 -182 31 -221 18 -111 17 -131 -8 -180 -13 -27 -32 -74 -42 -104 -10 -30
-20 -58 -22 -63 -5 -9 -6 -7 -196 363 -160 314 -149 278 -162 515 -4 61 -8
130 -10 155 l-4 45 25 -32 c13 -17 47 -46 76 -63z m1913 68 c-2 -13 -6 -70
-10 -128 -17 -296 -6 -254 -112 -460 -53 -102 -121 -234 -153 -295 -32 -60
-65 -126 -75 -145 l-18 -34 -18 56 c-9 31 -29 81 -44 113 -28 59 -28 54 -10
205 5 40 16 123 20 150 6 36 39 278 54 395 l6 50 40 -5 c133 -17 212 6 283 80
20 21 38 39 39 39 1 1 0 -9 -2 -21z m-1494 -100 c0 -13 2 -39 3 -58 5 -59 18
-272 21 -335 1 -33 6 -98 9 -145 7 -82 6 -86 -20 -113 -14 -16 -28 -27 -30
-25 -4 5 -7 23 -64 443 -16 121 -30 228 -30 238 0 14 9 17 55 17 50 0 55 -2
56 -22z m1084 -30 c-4 -29 -8 -66 -10 -83 -2 -16 -9 -66 -16 -109 -6 -44 -12
-91 -14 -105 -20 -152 -47 -346 -50 -349 -2 -2 -15 7 -30 20 l-27 23 7 115 c4
63 8 135 10 160 2 25 7 101 11 170 4 69 8 136 9 150 1 14 3 33 4 43 1 14 11
17 57 17 l56 0 -7 -52z m-1452 -608 c200 -391 205 -402 217 -470 21 -114 22
-126 12 -115 -23 23 -412 680 -409 690 2 5 12 43 22 83 11 39 22 69 26 65 3
-5 63 -118 132 -253z m1889 105 c1 -12 -86 -166 -197 -350 -183 -305 -235
-386 -221 -345 6 18 14 59 22 120 6 52 125 296 339 700 l18 35 19 -70 c10 -38
19 -79 20 -90z m-1274 -70 c58 -23 73 -25 242 -25 171 0 184 1 241 26 l61 25
41 -27 c61 -40 132 -110 166 -162 33 -51 89 -211 92 -258 1 -16 -11 -98 -27
-182 l-28 -153 -66 -58 c-67 -58 -68 -58 -161 -71 -52 -7 -101 -14 -110 -15
-9 -2 -40 -6 -70 -10 -30 -4 -57 -9 -60 -10 -11 -7 -95 -7 -144 -1 -27 4 -66
9 -85 12 -20 2 -45 6 -55 8 -11 2 -47 7 -80 12 -33 4 -63 8 -67 10 -5 1 -20 2
-35 3 -36 2 -162 116 -168 151 -2 14 -15 88 -29 164 l-24 139 20 71 c42 153
104 245 222 333 32 23 59 43 60 43 2 0 30 -11 64 -25z m-869 -115 c-5 -30 -11
-73 -14 -95 -9 -63 -15 -98 -20 -125 -3 -14 -7 -45 -10 -70 -3 -25 -7 -56 -10
-70 -2 -14 -6 -41 -9 -60 -5 -35 -19 -131 -21 -140 -1 -3 -5 -30 -9 -60 -4
-30 -9 -67 -12 -82 -2 -16 -6 -40 -8 -55 -5 -30 -25 -163 -31 -199 -10 -63
-19 -140 -17 -146 1 -5 -2 -8 -7 -8 -9 0 -268 431 -273 455 -3 11 443 718 448
712 1 -1 -2 -27 -7 -57z m2410 -245 c45 -71 122 -191 171 -267 l88 -136 -136
-231 c-74 -127 -139 -228 -143 -224 -4 5 -14 58 -23 118 -8 61 -25 171 -36
245 -11 74 -27 182 -36 240 -8 58 -17 116 -19 130 -15 95 -25 160 -29 195 -5
39 -22 151 -32 210 -5 31 5 18 195 -280z m-225 170 c8 -55 29 -192 46 -305 17
-113 42 -279 56 -370 14 -91 27 -181 30 -200 3 -19 12 -80 20 -134 8 -55 11
-102 7 -106 -4 -3 -71 -62 -148 -131 -120 -106 -170 -151 -229 -204 -121 -109
-177 -157 -180 -154 -3 2 4 40 15 84 10 44 29 125 40 180 11 55 23 108 25 118
2 9 6 25 8 35 5 19 16 71 105 467 33 149 71 317 84 375 13 58 42 182 63 277
21 95 39 171 40 170 1 -1 9 -47 18 -102z m-2029 -345 c52 -234 128 -576 170
-760 41 -184 78 -346 80 -360 3 -14 11 -51 19 -82 7 -32 11 -58 9 -58 -6 0
-49 37 -129 109 -49 45 -190 171 -224 201 -9 8 -46 40 -81 72 -35 31 -79 69
-97 85 l-33 29 15 109 c9 61 18 121 20 135 8 42 16 99 21 148 3 26 8 58 10 72
3 14 7 41 10 60 3 19 7 46 10 60 2 14 7 45 10 70 3 25 10 70 15 100 15 87 38
240 44 295 12 98 27 167 32 150 2 -5 46 -201 99 -435z m165 91 c159 -263 213
-345 253 -380 27 -25 63 -57 78 -71 20 -19 156 -176 216 -250 2 -2 48 -5 101
-5 53 -1 102 -2 107 -3 7 -1 10 -208 10 -612 0 -335 -3 -609 -7 -607 -9 3
-499 438 -548 487 -34 33 -38 44 -79 230 -24 107 -45 206 -48 220 -2 14 -13
61 -23 105 -21 84 -60 258 -190 846 -44 196 -82 364 -86 375 -16 45 24 -18
216 -335z m1745 123 c-26 -115 -49 -217 -51 -227 -2 -10 -5 -26 -8 -35 -3 -9
-7 -28 -10 -42 -2 -14 -43 -198 -91 -410 -48 -212 -98 -434 -111 -495 -77
-349 -70 -327 -106 -358 -18 -16 -49 -43 -68 -60 -19 -18 -78 -70 -130 -117
-52 -46 -100 -89 -106 -95 -6 -5 -42 -37 -79 -70 -38 -33 -89 -79 -114 -102
-25 -23 -48 -43 -51 -43 -3 0 -6 276 -5 613 l0 612 95 1 c52 0 104 4 115 8 11
4 61 57 110 118 50 60 124 140 165 176 80 71 59 38 424 644 33 54 61 96 63 94
2 -2 -17 -98 -42 -212z m-1210 -619 c22 -3 72 -10 110 -16 118 -18 175 -18
300 1 218 33 208 32 199 18 -4 -7 -37 -48 -73 -90 l-66 -78 -217 0 -216 0 -68
83 c-38 45 -73 86 -79 90 -9 8 8 6 110 -8z"/>
<path d="M3140 2616 c-54 -15 -102 -39 -119 -60 -15 -18 -37 -102 -36 -136 3
-56 17 -117 33 -141 9 -14 44 -57 77 -94 33 -37 64 -74 68 -82 16 -27 285
-133 337 -133 28 0 202 60 265 92 47 23 77 50 140 123 87 101 103 136 104 230
2 122 -33 169 -145 199 -59 15 -67 15 -125 -13 -70 -35 -149 -49 -256 -47
-101 3 -163 15 -223 46 -53 27 -71 29 -120 16z m124 -66 c84 -34 123 -40 241
-40 101 0 173 13 243 45 58 27 82 31 82 15 0 -6 -37 -65 -82 -133 -46 -67 -86
-126 -90 -132 -4 -6 20 -52 52 -101 l60 -89 -37 -19 c-52 -26 -163 -64 -212
-72 -30 -5 -61 0 -122 21 -89 29 -169 62 -169 69 0 2 27 43 60 91 l59 88 -94
137 c-51 76 -91 141 -88 144 10 10 17 8 97 -24z m-71 -108 c110 -162 105 -141
51 -222 -26 -38 -49 -70 -52 -70 -6 0 -31 28 -94 101 -30 35 -51 71 -58 102
-12 44 -9 123 4 157 8 19 57 50 69 43 4 -2 40 -52 80 -111z m729 99 c43 -22
58 -127 31 -216 -5 -20 -128 -167 -144 -173 -7 -3 -84 103 -95 132 -5 14 165
279 176 273 3 -1 17 -9 32 -16z"/>
</g>
</svg>
