<svg width="2000" height="2000" viewBox="0 0 2000 2000" fill="none" xmlns="http://www.w3.org/2000/svg">
<path d="M953.134 857.378V452.777L650.357 150V554.601L953.134 857.378Z" fill="#B23444"/>
<path d="M1047.54 857.378V452.777L1350.32 150V554.601L1047.54 857.378Z" fill="#B23444"/>
<path d="M1142.62 953.134H1547.22L1850 650.357H1445.4L1142.62 953.134Z" fill="#B23444"/>
<path d="M1142.62 1047.54H1547.22L1850 1350.32H1445.4L1142.62 1047.54Z" fill="#B23444"/>
<path d="M1046.87 1143.3V1547.9L1349.64 1850.67V1446.07L1046.87 1143.3Z" fill="#B23444"/>
<path d="M952.46 1143.3V1547.9L649.683 1850.67V1446.07L952.46 1143.3Z" fill="#B23444"/>
<path d="M857.378 1047.54H452.777L150 1350.32H554.601L857.378 1047.54Z" fill="#B23444"/>
<path d="M857.378 953.134H452.777L150 650.357H554.601L857.378 953.134Z" fill="#B23444"/>
<rect x="905.256" y="999.663" width="134.867" height="134.867" transform="rotate(-45 905.256 999.663)" fill="#3F3F46"/>
</svg>
