<svg width="512" height="512" viewBox="0 0 512 512" fill="none" xmlns="http://www.w3.org/2000/svg">
<rect width="512" height="512" fill="white"/>
<path d="M512 94H0V428.584H512V94Z" fill="white"/>
<path d="M478.529 125.12H33.4692V397.488H478.529V125.12Z" fill="#B6E0F0"/>
<path opacity="0.8" d="M215.561 232.412C235.056 232.412 250.86 216.128 250.86 196.041C250.86 175.954 235.056 159.67 215.561 159.67C196.066 159.67 180.262 175.954 180.262 196.041C180.262 216.128 196.066 232.412 215.561 232.412Z" fill="#F9F8C8"/>
<g opacity="0.5">
<path d="M289.087 397.488H33.8691L124.598 286.895C144.86 262.172 178.097 262.172 198.359 286.895L232.795 328.927L289.087 397.488Z" fill="#275C91"/>
</g>
<g opacity="0.5">
<path d="M478.53 347.946V397.488H180.261L236.76 328.927L311.914 237.828C332.73 212.439 366.972 212.439 387.787 237.828L478.53 347.946Z" fill="#275C91"/>
</g>
</svg>
