<svg viewBox="0 0 10 14" fill="none" xmlns="http://www.w3.org/2000/svg" id="md-coat">
<path d="M3.00023 4H7.00023V7H3.00023V4Z" fill="#DD2E44"/>
<path d="M3.00023 7V9L5.00023 10L7.00023 9V7H3.00023Z" fill="#226699"/>
<path d="M6.68032 8.42323C6.77796 8.52086 6.53047 8.43166 6.43284 8.5293C6.33521 8.62693 6.4244 8.87441 6.32677 8.77678C6.22914 8.67915 6.22914 8.52086 6.32677 8.42323C6.4244 8.3256 6.58269 8.3256 6.68032 8.42323Z" fill="#FFD200"/>
<circle cx="3.60001" cy="8.5" r="0.25" fill="#FFD200"/>
<path d="M3.00023 0V1H4.00023V3H6.00023V0H3.00023ZM6.00023 10L5.00023 10.625L4.00023 10L3.00023 13L5.00023 14L7.00023 13L6.00023 10ZM2.00023 2L1.00023 1L0.000228882 2V12L2.00023 10V3H3.00023L2.00023 2ZM9.00023 1L8.00023 2L7.00023 3H8.00023V10L10.0002 12V2L9.00023 1Z" fill="#B07E5B"/>
<path d="M3.23422 6.59399H3.76522V6.99999H3.23422V6.59399ZM6.23422 6.59399H6.76522V6.99999H6.23422V6.59399Z" fill="#FFD200"/>
<path d="M2.63724 11.743C2.53124 11.805 2.37424 11.733 2.28724 11.584L0.0552361 7.71799C-0.0307639 7.56799 -0.0147642 7.39699 0.0922358 7.33499L0.228235 7.25699C0.334235 7.19499 0.491235 7.26699 0.577235 7.41599L2.80924 11.283C2.89624 11.432 2.87924 11.603 2.77324 11.665L2.63724 11.743Z" fill="#007A50"/>
<path d="M9.81724 7.39301C9.92424 7.45401 9.94224 7.62301 9.85624 7.77001L7.66524 11.568C7.57924 11.715 7.42524 11.784 7.31724 11.723L7.18224 11.645C7.07624 11.583 7.05824 11.415 7.14324 11.267L9.33524 7.46901C9.42024 7.32301 9.57524 7.25201 9.68224 7.31501L9.81724 7.39301Z" fill="#FFCC4D"/>
<path d="M3.00024 10L2.00024 11V12L3.00024 11V10ZM7.00024 10V11L8.00024 12V11L7.00024 10Z" fill="#DD2E44"/>
<path d="M5.00023 6L4.00023 5V7.958L5.00023 9L6.00023 7.958V5L5.00023 6Z" fill="#FFD200"/>
</svg>
