<svg width="141" height="150" viewBox="0 0 141 150" fill="none" xmlns="http://www.w3.org/2000/svg">
<path d="M68.2847 145.637C67.737 145.52 65.9406 145.217 64.2756 144.959C62.6107 144.679 61.0552 144.352 60.8142 144.188C60.5732 144.025 59.9817 143.277 59.4998 142.506L58.6016 141.104L59.8941 140.823C62.4354 140.262 64.1442 140.216 66.6417 140.636C68.6133 140.987 69.5554 141.01 71.8995 140.847C74.8351 140.636 82.0427 140.636 82.2399 140.847C82.5028 141.104 82.0208 142.225 81.2979 143.09C80.2901 144.258 79.37 144.609 75.6238 145.217C71.9871 145.801 69.643 145.941 68.2847 145.637Z" fill="#F2BD0D"/>
<path d="M78.2527 137.715C71.2204 136.64 70.8699 136.64 64.6919 137.482C61.6906 137.879 58.8864 138.183 58.4702 138.136L57.7034 138.066L56.3013 133.743C54.6363 128.672 54.6363 128.485 55.9946 124.886C56.4766 123.554 56.8928 122.152 56.8928 121.755C56.8928 121.381 56.4546 120.049 55.9289 118.811C54.943 116.52 54.1543 113.833 53.4971 110.515C53.2123 109.136 52.5551 107.454 50.7368 103.575C49.4223 100.747 48.3488 98.3868 48.3488 98.34C48.3488 98.2933 48.6555 98.1531 49.028 98.0363L49.729 97.8493L48.1736 95.9098C46.3991 93.6664 45.8295 92.5214 44.7122 88.8292C43.7263 85.6044 43.5949 85.3941 42.6748 85.9783C42.3023 86.212 41.9518 86.3288 41.8642 86.2354C41.7765 86.1419 41.9737 84.4827 42.2804 82.5198C42.8281 79.0847 43.3539 74.3176 43.6387 69.8309C43.7701 67.868 43.7482 67.6577 43.2224 66.6762C42.9157 66.092 42.6528 65.391 42.6528 65.1339C42.6528 64.8535 43.8578 62.6569 45.3475 60.2266C46.8372 57.7963 48.2612 55.4128 48.546 54.9454C48.8089 54.4547 49.2909 53.8471 49.6195 53.5667L50.211 53.076L50.2767 53.5667C50.3205 53.8471 50.0138 54.6183 49.5757 55.3427C48.6774 56.7915 48.1736 58.7778 47.4725 63.802C46.7715 68.8261 46.5086 68.6158 50.5396 66.279C54.242 64.1057 55.4907 63.1243 56.4766 61.6988C56.8271 61.1847 57.1119 60.8576 57.1119 60.9744C57.1557 62.1662 57.8129 66.9333 58.0977 68.2185C58.5359 70.0412 59.5874 72.8221 59.916 72.9389C60.0256 72.9623 60.6609 72.3547 61.34 71.5835C62.5011 70.2516 63.2679 69.0364 65.0424 65.5546L65.8092 64.0824L65.9187 66.3725C66.0064 67.9849 66.2035 69.2 66.6198 70.532C67.2551 72.5416 70.0812 78.7108 70.366 78.7108C70.6946 78.7108 73.5426 72.4949 74.0903 70.5787C74.397 69.5272 74.7256 67.8914 74.8132 66.9567L74.9666 65.2508L78.0337 69.8076C79.7205 72.3313 81.1445 74.2942 81.2322 74.2008C81.2979 74.1073 81.8675 72.3547 82.4809 70.2983C83.7296 66.1855 84.1678 63.802 83.9268 62.3765L83.7954 61.4418L85.2193 62.8439C86.3147 63.9188 87.4758 64.6899 90.2143 66.1621C92.1641 67.2137 93.8071 68.0316 93.851 67.9849C93.9824 67.8446 93.3471 61.6287 93.0185 59.5723C92.7556 58.03 92.3831 57.0953 90.9153 54.5716C90.3676 53.6368 89.9733 52.8189 90.039 52.7488C90.1047 52.6787 90.521 52.7255 90.9372 52.889C91.6383 53.1227 92.1422 53.8004 95.1654 58.5675C97.3124 61.9559 98.6268 64.2693 98.6925 64.7367C98.7583 65.2508 98.6268 65.6948 98.2544 66.2089C97.7943 66.9099 97.7505 67.1436 97.7724 69.901C97.8162 72.7519 98.3858 78.3136 99.065 82.1927C99.3936 83.9687 99.5031 86.3055 99.284 86.3055C99.2183 86.3055 98.9773 86.1886 98.7583 86.025C98.5392 85.8848 98.2106 85.8147 98.0353 85.8848C97.882 85.9549 97.2028 87.4739 96.5675 89.2498C95.1654 93.1757 94.7273 94.0169 93.0404 96.05C92.3174 96.9146 91.7259 97.7091 91.7259 97.8259C91.7259 97.9194 91.9012 97.9895 92.1202 97.9895C93.1718 98.0129 93.1061 98.2933 91.3097 102.172C89.0532 106.963 88.3302 108.902 87.6511 111.987C86.8843 115.469 86.3366 117.175 85.2193 119.675L84.2335 121.825L85.1317 124.933C86.4681 129.607 86.49 129.303 85.0441 133.93C83.883 137.739 83.4886 138.486 82.8095 138.393C82.7219 138.37 80.6626 138.066 78.2527 137.715ZM63.246 127.947C63.246 125.517 63.1803 123.461 63.0927 123.391C63.005 123.297 62.3697 124.396 61.6687 125.844C59.8941 129.443 59.938 130.331 61.8877 131.663C62.4354 132.037 62.9831 132.341 63.0708 132.341C63.1584 132.341 63.246 130.354 63.246 127.947ZM79.8082 131.312C80.4873 130.682 80.6188 130.401 80.7064 129.373C80.8159 128.345 80.7283 127.994 80.0272 126.569C79.5891 125.681 78.9319 124.582 78.5813 124.138L77.946 123.344L77.9241 127.69C77.9241 130.074 77.9898 132.084 78.0556 132.154C78.2746 132.411 78.9976 132.06 79.8082 131.312ZM72.7758 119.488C74.156 119.114 75.2076 119.021 78.1213 119.021H81.7579L81.0788 118.577C80.7064 118.32 79.6548 117.852 78.7785 117.502L77.1573 116.894L70.2564 116.871L63.3555 116.848L61.2743 117.712C60.1351 118.18 59.1055 118.67 59.0178 118.764C58.9302 118.857 60.398 118.951 62.304 118.951C65.1958 118.951 66.0283 119.021 67.2989 119.441C69.2487 120.072 70.6289 120.072 72.7758 119.488ZM59.0617 105.093C59.5436 98.4803 59.3026 94.9984 58.0101 90.7688C56.7394 86.5391 53.3 82.0758 49.9043 80.2765C48.8965 79.739 48.0202 79.3418 47.9545 79.4119C47.8888 79.482 48.3707 80.1363 49.028 80.8841C49.7071 81.6085 50.6053 82.6834 51.0216 83.2676C51.7445 84.2491 53.1685 86.7728 53.1685 87.0766C53.1685 87.1467 52.577 86.7962 51.854 86.2821C50.0138 84.9501 48.064 84.1556 46.3333 84.0154C44.4493 83.8752 44.4493 84.0154 45.9828 86.7495C48.2831 90.8155 50.4739 92.5214 53.7381 92.7784C54.6801 92.8485 55.5783 93.0121 55.7317 93.129C56.4108 93.6898 57.0681 97.2417 57.8786 104.533C58.0758 106.262 58.2949 108.061 58.3606 108.505C58.5797 109.814 58.7988 108.762 59.0617 105.093ZM83.2696 106.332C83.4448 105.164 83.7954 102.593 84.0363 100.653C84.4745 97.1716 85.307 93.5262 85.767 93.0355C85.8985 92.8953 86.9062 92.7083 87.9797 92.6149C91.0906 92.3344 92.6898 91.2829 94.5958 88.245C95.6036 86.656 96.7647 84.436 96.7647 84.1089C96.7647 84.0388 96.2389 83.9687 95.5817 83.9687C93.7852 83.9687 91.7697 84.7398 89.5352 86.3288C88.4179 87.1 87.4758 87.6842 87.4101 87.6141C87.3225 87.5206 91.3754 82.0291 93.2375 79.6689C93.5442 79.295 93.4347 79.3184 92.4927 79.7858C90.3895 80.8373 89.1627 81.8188 87.432 83.8284C84.0363 87.7777 82.6343 91.3296 82.0647 97.382C81.8675 99.5085 81.8894 100.63 82.1742 103.551C82.3714 105.514 82.5247 107.477 82.5247 107.944C82.5247 109.417 82.919 108.575 83.2696 106.332Z" fill="#F2BD0D"/>
<path d="M49.6194 90.395C48.7431 89.764 47.2534 86.9365 47.2534 85.9083V85.3241L47.9764 85.8148C48.4364 86.1186 48.765 86.586 48.9184 87.1935C49.3127 88.6424 49.8166 89.4836 50.6929 90.2548C51.4816 90.9558 51.5035 90.9792 50.9777 90.9792C50.671 90.9792 50.0576 90.7221 49.6194 90.395Z" fill="#F2BD0D"/>
<path d="M90.6523 90.6053C91.3752 90.1145 92.1201 88.9228 92.4049 87.8011C92.6239 86.9832 93.7193 85.6045 94.1575 85.6045C94.4423 85.6045 94.3985 86.4457 94.0479 87.3571C93.6536 88.3152 92.0762 90.1846 91.2657 90.652C90.4332 91.096 89.9512 91.0493 90.6523 90.6053Z" fill="#F2BD0D"/>
<path d="M51.5254 121.778L50.2986 118.46L50.8901 116.123C51.2187 114.815 51.5254 113.67 51.5911 113.553C51.6569 113.436 52.1826 114.815 52.7741 116.591C54.2639 121.101 54.3296 121.311 54.1543 122.269C54.001 123.25 53.2123 125.097 52.9494 125.097C52.8618 125.097 52.2265 123.601 51.5254 121.778Z" fill="#F2BD0D"/>
<path d="M88.0454 123.437C87.4319 121.264 87.4319 120.306 88.0234 118.74C88.2863 118.063 88.8121 116.45 89.1845 115.165C89.8418 112.992 89.9075 112.875 90.1704 113.366C91.2658 115.516 90.5209 122.69 89.0093 124.559L88.5273 125.167L88.0454 123.437Z" fill="#F2BD0D"/>
<path d="M46.1799 116.404C44.8655 113.529 44.2959 109.72 44.4711 105.117C44.5807 102.219 45.1064 98.8308 45.5008 98.5737C46.0266 98.2232 49.8823 106.753 49.8823 108.295C49.8823 109.276 47.341 117.852 47.0343 117.852C46.9248 117.852 46.5523 117.198 46.1799 116.404Z" fill="#F2BD0D"/>
<path d="M94.6177 116.754C94.0262 115.165 92.1641 107.313 92.1641 106.496C92.186 105.818 92.6898 104.533 94.0919 101.635C95.1435 99.4618 96.0855 97.6858 96.217 97.6858C96.4799 97.7325 96.918 99.0879 97.3343 101.098C97.7724 103.318 97.7286 106.729 97.2028 110.795C96.8304 113.599 96.6332 114.511 96.0417 115.749C95.6474 116.567 95.2311 117.292 95.0997 117.338C94.9682 117.362 94.7492 117.105 94.6177 116.754Z" fill="#F2BD0D"/>
<path d="M40.2648 104.369C38.9723 101.448 38.4465 97.9195 38.7313 94.2507C38.9066 91.727 39.5638 88.4087 39.8924 88.4087C40.221 88.4087 43.0909 93.9002 43.0909 94.5311C43.0909 95.349 40.9878 104.533 40.7468 104.79C40.6153 104.93 40.4401 104.79 40.2648 104.369Z" fill="#F2BD0D"/>
<path d="M101.299 104.369C101.234 104.252 100.664 102.266 100.029 99.9526C98.4514 94.1573 98.4733 93.7366 100.204 90.395C100.927 88.9929 101.628 87.8011 101.759 87.7544C102.044 87.6609 102.636 90.0211 102.921 92.4047C103.227 94.8583 103.03 98.6907 102.482 101.144C101.979 103.318 101.475 104.696 101.299 104.369Z" fill="#F2BD0D"/>
<path d="M25.1924 78.15C21.6433 75.6262 18.9706 73.4063 17.459 71.7004L16.4731 70.5787L17.1304 70.7423C17.7438 70.8825 24.2723 74.2475 26.8793 75.7898C28.61 76.7947 29.5739 76.9115 34.7222 76.7713C39.3228 76.6544 40.6592 76.818 39.6733 77.3789C39.1694 77.6593 29.2891 80.4634 28.7852 80.4634C28.5881 80.4634 26.9669 79.4353 25.1924 78.15Z" fill="#F2BD0D"/>
<path d="M110.457 79.8793C109.865 79.6924 107.74 79.1082 105.747 78.5707C101.256 77.4023 101.365 77.449 101.365 77.1686C101.365 77.0518 103.162 76.9583 105.703 76.9583C112.648 76.935 112.275 77.0284 118.409 73.5933C121.301 71.9809 123.799 70.6489 123.908 70.6489C124.653 70.6489 123.689 71.7239 119.943 75.0655C117.621 77.1219 115.255 79.0848 114.685 79.412C113.393 80.1598 111.881 80.3233 110.457 79.8793Z" fill="#F2BD0D"/>
<path d="M30.0779 72.2612C24.7981 71.1162 20.3947 70.1348 20.329 70.0646C20.1099 69.831 20.789 69.5272 23.8561 68.4289C27.5804 67.1436 29.4645 66.7931 30.9542 67.1436C33.2983 67.7045 40.0239 70.2049 40.2211 70.6021C40.3087 70.8124 40.484 71.7705 40.5497 72.7052C40.7031 74.3644 40.7031 74.3877 40.1992 74.3644C39.9144 74.341 35.3576 73.4063 30.0779 72.2612Z" fill="#F2BD0D"/>
<path d="M100.752 72.8454C100.971 70.7423 101.059 70.532 101.76 70.1814C102.088 70.0179 104.213 69.2234 106.514 68.4055C109.493 67.3305 110.983 66.9099 111.793 66.9099C113.305 66.9099 121.082 69.4337 121.082 69.9244C121.082 70.0646 101.387 74.4111 100.796 74.3877C100.642 74.3877 100.62 73.897 100.752 72.8454Z" fill="#F2BD0D"/>
<path d="M69.4019 70.9761C68.416 68.4757 68.2846 67.4475 68.2846 62.213C68.2846 57.8666 68.2627 57.5628 67.8683 57.3291C67.2111 56.9552 66.2034 57.0487 65.809 57.516C65.6338 57.7263 64.8451 59.3855 64.0564 61.1848C63.2897 62.9842 62.26 65.2976 61.7561 66.3258L60.8798 68.1953L60.4636 67.2605C60.113 66.4427 60.0692 65.6481 60.0473 61.2316C60.0254 55.5064 60.0035 55.4129 58.5138 55.3662C57.7251 55.3428 57.6375 55.4129 56.3449 57.3992C55.6001 58.5209 54.658 59.8061 54.2418 60.2735C53.3436 61.2783 49.9041 64.1993 49.7727 64.0591C49.6193 63.8955 50.5394 59.479 50.9995 58.1703C51.7443 56.0438 53.6065 53.0527 54.4828 52.6087C54.9648 52.3517 56.8707 52.0479 59.7406 51.7207C62.2162 51.4403 65.0642 51.0898 66.0938 50.9262C67.3426 50.7393 69.2047 50.7159 71.7898 50.8094C75.8208 50.9963 85.3506 52.0479 86.1831 52.4218C86.7089 52.6555 88.8778 55.9737 89.995 58.2404C90.5646 59.4089 90.718 60.0164 90.8056 61.5354C90.8494 62.5635 90.8494 63.4048 90.7618 63.4048C90.6961 63.4048 89.8636 62.9608 88.9435 62.4233C87.7605 61.6989 87.0813 61.1147 86.5994 60.3903C85.022 57.96 83.3351 55.67 83.0065 55.483C82.7655 55.3428 82.3712 55.4129 81.8673 55.67L81.1005 56.0438V61.3017C81.1005 66.0921 81.0567 66.653 80.6405 67.6812L80.2023 68.8028L79.3041 67.4475C78.0773 65.578 77.3982 64.0357 76.1494 60.5072C75.5798 58.848 74.9664 57.3992 74.8131 57.3057C74.3092 56.9552 73.1919 57.072 72.8414 57.516C72.5566 57.8432 72.4689 58.848 72.4032 63.0543C72.3156 67.5643 72.2499 68.3822 71.8117 69.6675C71.3517 71.0929 70.4973 72.7521 70.2344 72.7521C70.1686 72.7521 69.7743 71.9575 69.4019 70.9761Z" fill="#F2BD0D"/>
<path d="M37.154 61.6988C34.4374 59.0816 32.2248 56.6279 31.2608 55.109C30.2531 53.5667 28.9824 50.5522 28.2814 48.0986C27.7337 46.2291 27.668 45.6215 27.668 42.4902C27.6461 39.7094 27.7337 38.7046 28.0404 37.5829C28.5443 35.877 29.6397 33.3065 30.5379 31.7876L31.1951 30.6426L31.0856 34.1478C30.8665 41.3452 32.4438 46.603 36.0367 50.7859C37.5483 52.5385 39.2352 53.9172 41.9517 55.5764C43.2224 56.3475 43.8796 56.9083 43.9234 57.2121C43.9892 57.7963 40.2868 63.7318 39.7829 63.8253C39.5857 63.872 38.4465 62.9607 37.154 61.6988Z" fill="#F2BD0D"/>
<path d="M99.0868 60.1332C97.9476 58.3338 97.2027 56.9551 97.2684 56.7448C97.3561 56.5579 98.6924 55.5063 100.292 54.3846C103.403 52.2114 105.637 50.0381 106.908 47.9818C108.814 44.8972 109.734 40.8311 109.756 35.5499C109.756 33.6337 109.821 32.0914 109.909 32.0914C110.106 32.0914 111.005 33.6805 111.881 35.5499C112.823 37.6297 113.086 39.1252 113.064 42.4902C113.042 47.3508 111.925 51.2767 109.449 55.2259C107.675 58.0768 102.57 63.171 101.497 63.171C101.124 63.171 100.598 62.5167 99.0868 60.1332Z" fill="#F2BD0D"/>
<path d="M42.4774 52.3984C41.4697 51.7441 40.1114 50.6691 39.4542 50.0148C34.3716 45.0841 32.3342 36.1809 34.6783 29.2405C35.8394 25.8522 36.8472 24.4968 43.9671 16.7853C49.7069 10.5694 52.4673 7.1343 53.5189 4.9377C54.6362 2.60088 54.8552 4.35349 53.8256 7.34461C52.5768 11.0134 50.9776 13.5138 45.7417 20.0335C41.6887 25.081 40.199 27.2776 38.8189 30.3388C37.351 33.587 36.891 35.5032 36.8691 38.5177C36.8691 43.2147 38.3807 46.5797 42.587 51.2533C43.7262 52.5386 44.6025 53.5901 44.4929 53.5901C44.3834 53.5901 43.4852 53.0527 42.4774 52.3984Z" fill="#F2BD0D"/>
<path d="M97.137 52.7256C97.0494 52.6555 97.7066 51.7675 98.6048 50.786C104.498 44.1962 105.418 37.7232 101.628 29.6379C100.445 27.1141 99.4592 25.6886 94.6177 19.4961C88.5492 11.7145 87.3224 9.72822 86.5776 6.2931C85.9641 3.53566 86.1394 3.53566 87.7606 6.15289C89.6227 9.19075 92.2297 12.2753 97.5314 17.6967C103.446 23.7491 104.761 25.6419 105.856 29.6379C106.645 32.4654 106.82 36.4613 106.316 39.4057C105.352 44.8739 103.096 48.753 99.284 51.4637C97.2904 52.8891 97.2904 52.9125 97.137 52.7256Z" fill="#F2BD0D"/>
</svg>
