<svg width="2000" height="2000" viewBox="0 0 2000 2000" fill="none" xmlns="http://www.w3.org/2000/svg">
<path fill-rule="evenodd" clip-rule="evenodd" d="M911.578 1249.64L913.584 1249.27L915.428 1250.14C916.209 1250.51 916.977 1250.88 917.734 1251.24L917.951 1251.34C931.652 1257.84 941.489 1262.5 952.794 1265.73C964.629 1269.1 978.312 1270.95 999.71 1271.16C1021.11 1270.95 1034.79 1269.1 1046.63 1265.73C1057.93 1262.5 1067.77 1257.84 1081.47 1251.34L1085.84 1249.27L1087.84 1249.64C1096.39 1251.22 1103.36 1252.82 1109.46 1254.78C1120.41 1258.29 1128.23 1262.83 1137.27 1269.79L1138.77 1270.94L1139.39 1272.74C1143.83 1285.63 1146.41 1296.44 1146.51 1308.06C1146.61 1319.64 1144.23 1331.58 1139.44 1346.77L1139.04 1348.03L1090.77 1403.48L1089.85 1404.01C1072.43 1414.03 1050.69 1422.24 1033.24 1427.91C1024.47 1430.76 1016.7 1432.99 1010.97 1434.52C1008.1 1435.29 1005.73 1435.88 1003.97 1436.29C1003.1 1436.49 1002.35 1436.66 1001.76 1436.77L1001.71 1436.78C1001.38 1436.85 1000.56 1437.01 999.798 1437.04V1437.05C999.769 1437.04 999.739 1437.04 999.71 1437.04C999.68 1437.04 999.65 1437.04 999.621 1437.05V1437.04C998.857 1437.01 998.042 1436.85 997.714 1436.78L997.658 1436.77C997.065 1436.66 996.316 1436.49 995.445 1436.29C993.694 1435.88 991.318 1435.29 988.453 1434.52C982.721 1432.99 974.949 1430.76 966.184 1427.91C948.734 1422.24 926.994 1414.03 909.571 1404.01L908.653 1403.48L860.377 1348.03L859.981 1346.77C855.185 1331.58 852.814 1319.64 852.913 1308.06C853.011 1296.44 855.589 1285.63 860.033 1272.74L860.65 1270.94L862.151 1269.79C871.188 1262.83 879.013 1258.29 889.961 1254.78C896.059 1252.82 903.032 1251.22 911.578 1249.64ZM999.71 1424.29C999.718 1424.29 999.727 1424.29 999.736 1424.29C1000.1 1424.21 1000.56 1424.11 1001.11 1423.98C1002.7 1423.61 1004.94 1423.05 1007.71 1422.31C1013.24 1420.84 1020.79 1418.66 1029.33 1415.89C1044.46 1410.97 1062.4 1404.26 1077.6 1396.31L1043.09 1344.86L1097.38 1264.54C1094.42 1263.83 1091.17 1263.14 1087.55 1262.44L1086.57 1262.91C1073.19 1269.26 1062.44 1274.36 1050.09 1277.88C1036.8 1281.67 1021.89 1283.58 999.784 1283.79V1283.8C999.759 1283.8 999.734 1283.8 999.71 1283.79C999.685 1283.8 999.66 1283.8 999.635 1283.8V1283.79C977.529 1283.58 962.622 1281.67 949.329 1277.88C936.981 1274.36 926.234 1269.26 912.848 1262.91L911.871 1262.44C908.247 1263.14 904.999 1263.83 902.044 1264.54L956.325 1344.86L921.82 1396.31C937.021 1404.26 954.96 1410.97 970.089 1415.89C978.626 1418.66 986.181 1420.84 991.713 1422.31C994.48 1423.05 996.721 1423.61 998.31 1423.98C998.6 1424.05 998.864 1424.11 999.102 1424.16C999.328 1424.21 999.53 1424.26 999.71 1424.29ZM941.09 1344.88L889.385 1268.38C882.847 1270.9 877.502 1274.06 871.368 1278.66C867.548 1290.05 865.628 1298.95 865.55 1308.16C865.47 1317.61 867.321 1327.8 871.642 1341.72L912.071 1388.16L941.09 1344.88ZM1058.33 1344.88L1110.03 1268.38C1116.57 1270.9 1121.92 1274.06 1128.05 1278.66C1131.87 1290.05 1133.79 1298.95 1133.87 1308.16C1133.95 1317.61 1132.1 1327.8 1127.78 1341.72L1087.35 1388.16L1058.33 1344.88Z" fill="#3F3F46"/>
<path fill-rule="evenodd" clip-rule="evenodd" d="M566.089 100L576.866 106.505L455.241 355.398C465.721 430.565 473.417 458.465 488.826 490.5C511.704 519.353 533.54 541.034 558.777 556.948C606.799 587.231 668.37 597.419 775.938 593.648L877.056 562.681H1122.36L1223.48 593.648C1331.05 597.419 1392.62 587.231 1440.64 556.948C1465.88 541.034 1487.72 519.353 1510.59 490.5C1526 458.465 1533.7 430.565 1544.18 355.398L1422.55 106.505L1433.33 100L1607.66 338.36L1607.96 339.55C1619.27 384.271 1625.29 418.733 1625.42 451.657C1625.54 484.658 1619.75 515.772 1607.87 553.837L1607.6 554.714L1607.09 555.476C1576.44 601.137 1548.55 636.591 1520.45 664.681C1460.29 724.808 1399.6 750.653 1310.28 771.459L1312.28 786.053L1496.19 744.241L1625.16 791.139L1535.91 883.136L1476.99 925.691H1304.24L1292.55 1112.63L1309.13 1181.37L1460.27 1416.7L1366.25 1575.57L1184.65 1737.52L1184.65 1737.52L1184.65 1737.52L1176.93 1744.42C1172.01 1748.82 1164.98 1755.1 1156.54 1762.64C1139.67 1777.73 1117.16 1797.84 1094.61 1817.97C1072.07 1838.1 1049.49 1858.25 1032.48 1873.4C1023.98 1880.97 1016.87 1887.3 1011.84 1891.75C1009.33 1893.97 1007.34 1895.74 1005.95 1896.95C1005.47 1897.37 1005.06 1897.73 1004.72 1898.02C1004.51 1898.31 1004.28 1898.59 1004.06 1898.81C1003.85 1898.95 1003.6 1899.09 1003.3 1899.21C1003.25 1899.25 1003.13 1899.33 1003.06 1899.38C1002.94 1899.45 1002.62 1899.64 1002.4 1899.75C1001.67 1899.98 1000.71 1900.04 999.71 1899.98C998.714 1900.04 997.749 1899.98 997.017 1899.75C996.803 1899.64 996.478 1899.45 996.362 1899.38C996.29 1899.33 996.174 1899.25 996.118 1899.21C995.824 1899.09 995.566 1898.95 995.358 1898.81C995.144 1898.59 994.913 1898.31 994.695 1898.02C994.571 1897.92 994.438 1897.8 994.296 1897.68C994.048 1897.46 993.773 1897.22 993.47 1896.95C992.083 1895.74 990.089 1893.97 987.578 1891.75C982.554 1887.3 975.439 1880.97 966.935 1873.4C949.926 1858.25 927.348 1838.1 904.805 1817.97C882.262 1797.84 859.751 1777.73 842.877 1762.64C834.439 1755.1 827.411 1748.82 822.492 1744.42L814.771 1737.52L814.769 1737.52L814.765 1737.52L633.169 1575.57L539.145 1416.7L690.294 1181.37L706.866 1112.63L695.182 925.691H522.429L463.506 883.136L374.256 791.139L503.227 744.241L687.137 786.053L689.141 771.459C599.818 750.653 539.134 724.808 478.971 664.681C450.865 636.591 422.984 601.137 392.334 555.476L391.822 554.714L391.549 553.837C379.671 515.772 373.877 484.658 374.002 451.657C374.127 418.733 380.145 384.271 391.455 339.55L391.756 338.36L566.089 100ZM993.24 1526.69C993.233 1529.24 993.225 1532.52 993.215 1536.43C993.188 1546.67 993.151 1561.29 993.11 1578.83C993.027 1613.91 992.929 1660.67 992.863 1707.43C992.797 1754.18 992.764 1800.92 992.813 1835.94C992.838 1853.45 992.883 1868.04 992.956 1878.24C992.959 1878.71 992.962 1879.18 992.966 1879.64C988.27 1875.47 982.269 1870.13 975.341 1863.96C958.338 1848.81 935.765 1828.67 913.223 1808.54C890.681 1788.41 868.172 1768.3 851.298 1753.22C842.861 1745.68 835.833 1739.4 830.915 1735L824.699 1729.45L710.806 1220.29L832.051 1420.92L873.468 1457.88L931.895 1526.69H993.24ZM1061.68 1514.05L1105.75 1462.15L1104.22 1462.37C1093.31 1463.97 1078.69 1466.1 1063.87 1468.23C1049.04 1470.36 1034 1472.5 1022.24 1474.1C1016.37 1474.9 1011.3 1475.57 1007.48 1476.04C1004.13 1476.45 1001.27 1476.77 999.843 1476.81V1476.82C999.8 1476.82 999.756 1476.82 999.71 1476.82C999.664 1476.82 999.619 1476.82 999.577 1476.82V1476.81C998.149 1476.77 995.289 1476.45 991.944 1476.04C988.123 1475.57 983.05 1474.9 977.175 1474.1C965.42 1472.5 950.377 1470.36 935.554 1468.23C920.728 1466.1 906.109 1463.97 895.198 1462.37L893.671 1462.15L937.743 1514.05H1061.68ZM999.71 1464.17C999.781 1464.17 999.88 1464.16 1000.01 1464.15C1000.35 1464.12 1000.8 1464.08 1001.38 1464.02C1002.53 1463.9 1004.06 1463.73 1005.93 1463.49C1009.67 1463.03 1014.68 1462.37 1020.54 1461.57C1032.25 1459.98 1047.25 1457.85 1062.07 1455.72C1076.88 1453.59 1091.48 1451.46 1102.39 1449.86C1107.84 1449.07 1112.37 1448.4 1115.53 1447.93L1118.62 1447.48L1156.61 1413.58L1173.06 1320.97C1165.66 1285.59 1156.76 1261.53 1143.75 1242.36C1136.5 1231.68 1127.89 1222.38 1117.33 1213.44C1108.44 1205.91 1098.15 1198.63 1086.11 1190.99L1051.99 1205.36H947.431L913.306 1190.99C901.268 1198.63 890.984 1205.91 882.085 1213.44C871.528 1222.38 862.915 1231.68 855.67 1242.36C842.661 1261.53 833.758 1285.59 826.356 1320.97L842.806 1413.58L880.797 1447.48C881.595 1447.6 882.634 1447.75 883.888 1447.93C887.051 1448.4 891.577 1449.07 897.029 1449.86C907.935 1451.46 922.542 1453.59 937.353 1455.72C952.167 1457.85 967.173 1459.98 978.881 1461.57C984.737 1462.37 989.749 1463.03 993.49 1463.49C995.364 1463.73 996.893 1463.9 998.04 1464.02C998.615 1464.08 999.069 1464.12 999.408 1464.15C999.54 1464.16 999.639 1464.17 999.71 1464.17ZM993.258 852.664V1192.72H949.983L919.042 1179.69V903.755L993.258 852.664ZM993.258 729.225V837.321L917.323 889.595L898.874 778.9L993.258 729.225ZM993.258 599.37V714.943L894.832 766.746L845.474 660.087L993.258 599.37ZM993.258 575.319V585.707L834.656 650.869L756.343 680.236L781.934 605.029L878.948 575.319H993.258ZM1006.16 1192.72H1049.44L1080.38 1179.69V903.755L1006.16 852.664V1192.72ZM1006.16 837.321L1082.1 889.595L1100.55 778.9L1006.16 729.225V837.321ZM1006.16 714.943L1104.59 766.746L1153.95 660.087L1006.16 599.37V714.943ZM1006.16 585.707L1164.76 650.869L1243.08 680.236L1217.49 605.029L1120.47 575.319H1006.16V585.707ZM1006.45 1879.64C1006.46 1879.18 1006.46 1878.71 1006.46 1878.24C1006.54 1868.04 1006.58 1853.45 1006.61 1835.94C1006.66 1800.92 1006.62 1754.18 1006.56 1707.43C1006.49 1660.67 1006.39 1613.91 1006.31 1578.83C1006.27 1561.29 1006.23 1546.67 1006.2 1536.43C1006.19 1532.52 1006.19 1529.24 1006.18 1526.69H1067.52L1125.95 1457.88L1167.37 1420.92L1288.61 1220.29L1174.72 1729.45L1168.5 1735C1163.59 1739.4 1156.56 1745.68 1148.12 1753.22C1131.25 1768.3 1108.74 1788.41 1086.2 1808.54C1063.65 1828.67 1041.08 1848.81 1024.08 1863.96C1017.15 1870.13 1011.15 1875.47 1006.45 1879.64ZM475.405 491.68C460.656 459.921 452.978 430.157 443.042 359.414L402.165 348.816C391.967 390.109 386.754 421.768 386.64 451.705C386.53 480.718 391.21 508.404 401.134 541.922L475.405 491.68ZM445.305 346.945L408.175 337.319L534.235 164.961L445.305 346.945ZM482.146 502.378L406.349 553.652C433.437 593.584 458.182 625.113 482.74 650.491L546.36 563.932C523.113 548.221 502.748 527.867 482.146 502.378ZM557.062 570.711L491.765 659.551C548.692 714.997 606.535 739.353 693.322 759.456L740.338 688.041L768.069 606.545C668.329 609.435 606.303 599.873 557.062 570.711ZM743.901 705.611L702.506 768.49V829.507L769.503 790.775L743.901 705.611ZM727.461 829.678L702.737 843.971L708.255 932.253C714.873 930.795 720.56 930.09 726.038 930.15C733.523 930.231 740.227 931.739 747.961 934.179L748.157 934.241L748.348 934.315C764.052 940.417 775.996 947.096 785.838 955.155L727.461 829.678ZM725.899 942.787C721.394 942.738 716.427 943.342 709.99 944.817C715.009 965.633 719.65 978.108 725.165 986.797C731.013 996.012 738.114 1001.4 749.274 1008C767.611 1018.83 789.585 1016.4 810.84 1009.8C802.521 994.288 795.424 982.625 786.474 973.039C776.479 962.335 763.881 953.931 743.963 946.17C736.921 943.958 731.592 942.849 725.899 942.787ZM860.064 1019.76H827.154L854.658 1222.86C859.746 1216.87 865.336 1211.28 871.502 1205.88L860.064 1019.76ZM817.59 1302.51C824.262 1275.49 832.442 1254.75 843.859 1237.29L814.683 1021.84C792.246 1028.83 765.851 1032.47 742.845 1018.88C731.044 1011.9 721.926 1005.28 714.495 993.569C713.567 992.107 712.67 990.573 711.799 988.957L719.456 1111.47L817.59 1302.51ZM861.782 1007.12H823.951L738.445 823.328L776.452 801.355L905.055 902.443L861.782 1007.12ZM753.813 694.682L782.469 790.01L903.81 885.389L885.797 777.315L833.695 664.726L753.813 694.682ZM906.404 1180.4V932.258L872.403 1014.5L883.563 1196.1C890.526 1190.84 898.117 1185.66 906.404 1180.4ZM813.867 1322.92L715.387 1131.21L702.939 1182.84L824.804 1384.49L813.867 1322.92ZM644.862 1569.06L808.52 1715.01L697.416 1218.33L644.862 1569.06ZM634.492 1552.99L685.568 1212.11L553.991 1416.97L634.492 1552.99ZM543.473 913.053L689.868 803.571V840.657L694.392 913.053H543.473ZM471.805 873.54L516.424 905.764L498.342 759.465L396.916 796.347L471.805 873.54ZM529.408 907.79L511.015 758.972L677.723 796.873L529.408 907.79ZM1524.01 491.68C1538.76 459.921 1546.44 430.157 1556.38 359.414L1597.25 348.816C1607.45 390.109 1612.67 421.768 1612.78 451.705C1612.89 480.718 1608.21 508.404 1598.29 541.922L1524.01 491.68ZM1554.11 346.945L1591.24 337.319L1465.18 164.961L1554.11 346.945ZM1517.27 502.378L1593.07 553.652C1565.98 593.584 1541.24 625.113 1516.68 650.491L1453.06 563.932C1476.31 548.221 1496.67 527.867 1517.27 502.378ZM1442.36 570.711L1507.65 659.551C1450.73 714.997 1392.88 739.353 1306.1 759.456L1259.08 688.041L1231.35 606.545C1331.09 609.435 1393.12 599.873 1442.36 570.711ZM1255.52 705.611L1296.91 768.49V829.507L1229.92 790.775L1255.52 705.611ZM1271.96 829.678L1296.68 843.971L1291.16 932.253C1284.55 930.795 1278.86 930.09 1273.38 930.15C1265.9 930.231 1259.19 931.739 1251.46 934.179L1251.26 934.241L1251.07 934.315C1235.37 940.417 1223.42 947.096 1213.58 955.155L1271.96 829.678ZM1273.52 942.787C1278.03 942.738 1282.99 943.342 1289.43 944.817C1284.41 965.633 1279.77 978.108 1274.25 986.797C1268.41 996.012 1261.31 1001.4 1250.15 1008C1231.81 1018.83 1209.83 1016.4 1188.58 1009.8C1196.9 994.288 1204 982.625 1212.95 973.039C1222.94 962.335 1235.54 953.931 1255.46 946.17C1262.5 943.958 1267.83 942.849 1273.52 942.787ZM1139.36 1019.76H1172.27L1144.76 1222.86C1139.67 1216.87 1134.08 1211.28 1127.92 1205.88L1139.36 1019.76ZM1181.83 1302.51C1175.16 1275.49 1166.98 1254.75 1155.56 1237.29L1184.74 1021.84C1207.17 1028.83 1233.57 1032.47 1256.57 1018.88C1268.38 1011.9 1277.49 1005.28 1284.92 993.569C1285.85 992.107 1286.75 990.573 1287.62 988.957L1279.96 1111.47L1181.83 1302.51ZM1137.64 1007.12H1175.47L1260.97 823.328L1222.97 801.355L1094.36 902.443L1137.64 1007.12ZM1245.61 694.682L1216.95 790.01L1095.61 885.389L1113.62 777.315L1165.72 664.726L1245.61 694.682ZM1093.02 1180.4V932.258L1127.02 1014.5L1115.86 1196.1C1108.89 1190.84 1101.3 1185.66 1093.02 1180.4ZM1185.55 1322.92L1284.03 1131.21L1296.48 1182.84L1174.62 1384.49L1185.55 1322.92ZM1354.56 1569.06L1190.9 1715.01L1302 1218.33L1354.56 1569.06ZM1364.93 1552.99L1313.85 1212.11L1445.43 1416.97L1364.93 1552.99ZM1455.95 913.053L1309.55 803.571V840.657L1305.03 913.053H1455.95ZM1527.61 873.54L1483 905.764L1501.08 759.465L1602.5 796.347L1527.61 873.54ZM1470.01 907.79L1488.4 758.972L1321.7 796.873L1470.01 907.79Z" fill="#3F3F46"/>
<path d="M964.389 338.5L816.389 523.5L1499 809L1552 687.5L1596 589.5L1664 559.5L1730.5 627.5L1849.5 772L1730.5 195L1423.5 110.5L1135.39 248L964.389 338.5Z" fill="#D24D4D" stroke="#3F3F46" stroke-width="14"/>
<path d="M949.554 519.262L1185.26 585.903L1400.66 702.519L1510.57 821.414L1480.8 894.674L1319.12 903.237L1083.41 836.597L868.014 719.98L758.106 601.085L787.867 527.825L949.554 519.262Z" fill="white" stroke="#3F3F46" stroke-width="14"/>
<path d="M1777.91 709.782L1850 686.36L1922.09 709.782L1966.64 771.102V846.898L1922.09 908.218L1850 931.64L1777.91 908.218L1733.36 846.898V771.102L1777.91 709.782Z" fill="white" stroke="#3F3F46" stroke-width="14"/>
</svg>
