<svg width="239" height="350" fill="none" xmlns="http://www.w3.org/2000/svg"><path d="M143.919 350c52.222 0 94.557-7.564 94.557-16.894 0-9.331-42.335-16.895-94.557-16.895s-94.556 7.564-94.556 16.895c0 9.33 42.334 16.894 94.556 16.894z" fill="#650000" opacity=".2"/><path d="M37.132 267.655c-4.203 5-10.688 7.852-17.215 8.114-6.52.262-13.032-1.953-18.376-5.704 1.891.201 3.952.221 5.75-.313 1.172-.345 2.23-.925 3.058-1.85 2.312-2.58 1.742-6.511 1.855-9.98a21.994 21.994 0 0 1 4.578-12.687 16.963 16.963 0 0 1 2.21-2.374c.046-.041.098-.083.144-.124.185-.154.37-.303.56-.447.303-.231.622-.447.95-.647 2.087-1.275 4.544-1.809 6.98-2.009 3.406-.283 7.009.107 9.876 1.973 2.867 1.86 4.779 5.452 3.92 8.761a1.094 1.094 0 0 1-.06.165c1.433 5.904-.304 12.456-4.23 17.122z" fill="#7A5545"/><path d="M37.646 267.655c-4.204 5-10.689 7.852-17.215 8.114-6.52.262-13.032-1.953-18.376-5.704 1.89.201 3.952.221 5.75-.313a14.693 14.693 0 0 0 4.214 1.269c2.359.329 4.758.005 7.107-.406 2.014-.35 4.054-.776 5.868-1.727 4.353-2.292 6.753-7.523 6.265-12.42-.494-4.892-3.577-9.317-7.662-12.061-1.049-.704-2.2-1.32-3.418-1.582 0-.18.01-.36.031-.535.303-.231.622-.447.95-.647 2.087-1.275 4.544-1.809 6.98-2.009 3.406-.283 7.009.107 9.876 1.973 2.867 1.86 4.779 5.452 3.92 8.761a1.084 1.084 0 0 1-.06.165c1.433 5.904-.304 12.456-4.23 17.122z" fill="#650000" opacity=".3"/><path d="M39.53 249.711c2.125 6.718-.263 14.155-5.402 18.844-5.277 4.816-12.873 6.567-19.819 5.286-4.333-.8-8.381-2.594-11.99-5.105-.26.957-.52 1.915-.778 2.872 4.041.406 8.878-.142 10.981-4.149 2.005-3.819.762-8.334 1.53-12.416.8-4.256 2.93-8.636 6.37-11.38 1.736-1.386 3.909-2.063 6.082-2.371 2.1-.297 4.33-.327 6.41.118 2.212.474 4.348 1.489 5.735 3.333a7.363 7.363 0 0 1 1.289 2.708c.112.468.155.851.15 1.349-.003.23-.018.492-.046.672-.016.098-.047.195-.059.293-.053.461-.004-.03.144-.097l.778-.211-.134.001.778.211-.126-.073c-1.722-.994-3.276 1.669-1.556 2.662 1.486.858 2.853-.425 3.13-1.869a8.868 8.868 0 0 0-.042-3.565c-.478-2.239-1.858-4.344-3.63-5.775-4.045-3.268-9.782-3.546-14.693-2.546-2.583.526-4.954 1.661-6.915 3.429-1.84 1.661-3.345 3.788-4.464 5.992-1.13 2.225-1.936 4.62-2.308 7.088-.362 2.403-.224 4.783-.32 7.198-.085 2.111-.527 4.364-2.46 5.506-1.922 1.135-4.413 1.031-6.625.809-.663-.067-1.32.526-1.486 1.132-.19.693.143 1.347.708 1.74 6.918 4.813 15.68 7.131 24.002 5.28 7.813-1.739 14.572-7.084 17.351-14.675 1.527-4.17 1.731-8.866.389-13.111-.596-1.885-3.574-1.079-2.973.82z" fill="#650000"/><path d="M91.664 277.871c-.36.128-.714.246-1.069.365-18.227 6.022-29.979-1.717-37.076-19.343-.914-2.286-2.302-4.378-4.183-5.971-4.414-3.746-10.22-4.203-17.091-2.148-1.285.38-2.6.848-3.957 1.403 2.78-7.708 9.111-10.735 15.976-9.954 6.306.72 11.758 4.728 14.666 10.365 5.514 10.673 11.408 15.411 17.642 14.882 3.962-.334 8.057-2.796 12.276-7.205l2.261 14.152.555 3.454z" fill="#EA984E"/><path d="M79.187 282.056c-12.145 0-21.307-7.522-27.333-22.492-.86-2.134-2.132-3.956-3.68-5.269-4.438-3.767-10.722-3.917-19.208-.454a1.8 1.8 0 0 1-2.371-2.276c2.858-7.916 9.531-12.079 17.874-11.128 6.792.773 12.797 5.007 16.06 11.327 4.394 8.506 9.047 13.168 13.83 13.858 4.008.577 8.45-1.642 13.192-6.6a1.8 1.8 0 0 1 3.076.959l2.813 17.604a1.799 1.799 0 0 1-1.174 1.979c-4.684 1.662-9.046 2.492-13.079 2.492zM39.702 247.78c4.226 0 7.837 1.258 10.8 3.772 1.99 1.689 3.612 3.995 4.688 6.669 7.069 17.557 18.35 23.598 34.459 18.431l-2.032-12.712c-4.716 4.12-9.336 5.883-13.772 5.242-6.083-.877-11.484-6.035-16.51-15.768-2.713-5.251-7.675-8.766-13.273-9.403-5.159-.588-9.403 1.198-12.117 4.977 2.78-.806 5.366-1.208 7.757-1.208z" fill="#650000"/><path d="M80.883 258.071h.242a.47.47 0 0 1-.242 0z" fill="#6D184E" opacity=".3"/><path d="M91.11 274.418c-.078.765-.17 1.526-.273 2.286a26.274 26.274 0 0 1-.242 1.532c-18.227 6.022-29.979-1.717-37.076-19.343-.914-2.286-2.302-4.378-4.183-5.971-4.414-3.746-10.22-4.203-17.091-2.148a25.759 25.759 0 0 1 1.87-1.387c1.213-.822 2.503-1.557 3.91-1.968 3.5-1.033 7.262.036 10.654 1.382 1.721.678 3.453 1.464 4.763 2.775 1.11 1.115 1.84 2.543 2.585 3.926 1.68 3.134 3.53 6.223 6.012 8.772 2.487 2.543 5.668 4.527 9.189 5.036 1.243.179 2.564.159 3.674-.427.647-.344 1.181-.853 1.67-1.413 3.962-.334 8.057-2.796 12.276-7.205l2.261 14.153z" fill="#650000" opacity=".3"/><path d="M19.136 242.737c.18.021.355.052.53.087-.006.093-.006.18 0 .273l-.674-.237-.468-.164c.206 0 .411.016.612.041z" fill="#6D184E" opacity=".5"/><path d="M201.048 238.061c-.124.082-.242.164-.365.241-6.156-18.54-11.758-36.341-15.694-51.942-.005-.005-.005-.01-.005-.015-2.739-10.859-4.681-20.648-5.437-28.88a79.349 79.349 0 0 1-.354-6.285c1.988.91 3.951 1.84 5.868 2.801 5.185 2.59 10.082 5.39 14.532 8.53 7.688 5.421 14.039 11.855 18.176 19.959.278.539.545 1.094.802 1.649l.041.088a45.455 45.455 0 0 1 1.865 4.763c3.058 20.725-4.476 39.199-19.429 49.091z" fill="#EA984E"/><path d="M200.681 240.101a1.795 1.795 0 0 1-1.706-1.231c-11.036-33.235-21.288-66.857-21.579-87.665a1.797 1.797 0 0 1 2.546-1.661c17.145 7.832 35.571 18.574 42.242 38.863.032.098.056.197.071.3 3.138 21.27-4.754 40.853-20.597 51.106a1.792 1.792 0 0 1-.977.288zm-19.587-86.055c1.094 20.003 10.39 50.725 20.541 81.416 13.311-9.763 19.824-27.171 17.084-46.078-5.944-17.865-22.021-27.959-37.625-35.338z" fill="#650000"/><path d="M198.963 238.834c-4.708-12.22-10.391-32.123-4.445-44.548 1.993-3.947 5.653-6.894 10.056-7.551.566-.019 1.399-.198 1.963-.146.73.002 1.775-.119 1.774.901a.847.847 0 0 1-.559.758c-2.197.897-4.161 1.942-5.609 3.402-9.498 9.294-2.143 34.264.257 46.122.464 2.146-2.597 3.118-3.437 1.062z" fill="#650000"/><path d="M206.854 187.568a33.771 33.771 0 0 0-14.691 10.334c-2.832-3.582-5.17-7.467-7.174-11.542-.005-.005-.005-.01-.005-.015-4.06-8.248-6.737-17.282-9.337-26.146a99.909 99.909 0 0 1 3.9-2.734 108.014 108.014 0 0 1 5.514-3.484c5.185 2.59 10.082 5.39 14.532 8.53-2.579 3.957-3.535 9.018-2.086 13.53 1.536 4.795 5.267 8.577 9.347 11.527z" fill="#650000" opacity=".3"/><path d="M218.766 187.378c-.005.215-.015.436-.026.657l-.971-5.565-.534-3.063a15.977 15.977 0 0 1 1.346 4.548c-.005-.005-.016-.01-.021-.015.006.061.006.118.011.18.067 1.084.128 2.173.195 3.258z" fill="#6D184E" opacity=".3"/><path d="m201.048 238.061-.386.123a94.772 94.772 0 0 0-.838-24.948c3.973.257 7.847-1.737 10.602-4.61 2.749-2.872 4.517-6.546 5.92-10.267 1.233-3.284 2.199-6.829 2.394-10.324l.103.591-.077-1.248a19.672 19.672 0 0 0-.154-3.171 45.387 45.387 0 0 1 1.865 4.764c3.058 20.724-4.476 39.198-19.429 49.09z" fill="#650000" opacity=".3"/><path d="M202.491 335.425c-2.107.514-4.142.92-6.105 1.213-15.801 2.41-26.983-2.215-31.711-16.66a25.313 25.313 0 0 1-.211-.658l-5.354-14.044c-.91-2.395-2.117-4.656-3.546-6.778-4.327-6.424-6.701-13.048-7.261-19.846v-.01a43.993 43.993 0 0 1-.113-2.143 5.152 5.152 0 0 0-.164.169c-3.659 3.711-7.128 7.534-10.165 11.604-3.53 4.717-6.207 10.02-7.985 15.637-1.784 5.632-3.382 10.735-5.16 15.139-5.776 14.306-13.479 21.269-35.878 15.262-.401.067-.797.128-1.188.185l-.118.015c-.21.031-.416.057-.621.088-.463.056-.915.107-1.362.149l-.493.046c-.211.02-.422.036-.633.046-.251.021-.493.031-.734.041-.118.005-.231.01-.345.01-.282.011-.555.016-.827.016-3.597 0-6.367-.756-8.104-2.451a6.971 6.971 0 0 1-.416-.442 6.406 6.406 0 0 1-.976-1.568c-.787-1.778-.674-3.818.102-5.596 1.871-4.28 3.48-8.53 4.892-12.78 1.856-5.56 3.382-11.115 4.744-16.726.94-4.836 1.67-10.083 2.23-15.668.344-3.397.627-6.917.858-10.555.514-8.125.776-16.799.904-25.869.021-1.033.031-2.076.042-3.124.036-3.397.061-6.845.072-10.339.01-4.019.01-8.099.005-12.215-.689.39-1.408.745-2.159 1.064-.005.01-.01.015-.015.01-10.498 4.599-26.017 3.232-28.834-6.038 2.842-8.546 7.19-16.383 12-23.572 5.58-8.355 11.778-15.837 16.937-22.548 4.316-5.627 7.903-10.71 9.779-15.309h83.104l1.711 3.346.678 1.33 7.945 15.556c15.58 26.536 20.56 59.434 15.133 98.576a32.06 32.06 0 0 1-.822 4.049c-1.377 5.134-2.338 10.273-2.605 15.401a28.239 28.239 0 0 0 2.292 12.657c1.171 2.713 2.6 5.473 4.059 8.196 7.431 13.808 15.807 26.47-3.582 25.134z" fill="#EA984E"/><path d="M196.387 336.638c-15.802 2.41-26.984-2.215-31.712-16.66a21.977 21.977 0 0 1-.21-.658l-5.355-14.044c-.91-2.395-2.117-4.656-3.546-6.778-4.327-6.424-6.701-13.048-7.261-19.846v-.01c.072-.961.19-1.922.365-2.893 1.644 1.726 4.404 1.577 6.763 1.197 13.597-2.194 26.598-8.011 37.302-16.68l.108.39c-7.755 6.886-16.085 14.928-16.588 25.283-.303 6.259 2.379 12.23 5.005 17.919 5.041 10.925 10.082 21.855 15.129 32.78z" fill="#650000" opacity=".3"/><path d="M202.492 335.425c-19.029 4.619-32.503.791-37.816-15.447 2.991-2.405 6.29-4.435 9.733-6.141 1.891-.941 3.833-1.788 5.843-2.441 2.949-.961 6.022-1.5 9.105-1.829 5.56-.607 11.29-.53 16.717.724 7.43 13.808 15.807 26.47-3.582 25.134zM124.716 319.048c-5.775 14.306-13.478 21.269-35.878 15.262-8.207 1.387-13.895.478-15.817-3.865-.787-1.778-.674-3.818.102-5.596a149.95 149.95 0 0 0 4.892-12.78c7.39-4.501 16.388-6.351 24.939-5 8.345 1.321 16.151 5.673 21.762 11.979z" fill="#7A5545"/><g opacity=".6" fill="#fff"><path d="M84.257 333.225a51.83 51.83 0 0 1-1.305.201c-.21.03-.416.056-.622.087a47.222 47.222 0 0 1-1.855.195c-.21.021-.421.036-.632.047-.252.02-.494.03-.735.041-.118.005-.231.01-.344.01a22.055 22.055 0 0 1-2.422-.046c1.625.777 3.698 1.146 6.175 1.146.273 0 .545-.005.828-.016.113 0 .226-.005.344-.01.241-.01.483-.02.735-.041.21-.01.421-.026.632-.046l.493-.046c.447-.041.9-.093 1.362-.149.205-.031.41-.057.621-.088l.119-.015c.39-.057.785-.118 1.185-.185a78.66 78.66 0 0 1-4.58-1.085zM206.073 310.291c-1.459-2.723-2.888-5.483-4.06-8.196a28.252 28.252 0 0 1-2.291-12.657c.267-5.128 1.228-10.267 2.605-15.401a32.06 32.06 0 0 0 .822-4.049c5.427-39.142.447-72.04-15.134-98.576l-7.944-15.556-.678-1.33-1.712-3.346h-4.026l1.157 2.261 4.38.596 1.532 5.882a90.85 90.85 0 0 0 6.555 17.515c12.528 25.231 16.241 55.751 11.289 91.47a32.095 32.095 0 0 1-.822 4.049c-1.377 5.134-2.338 10.272-2.605 15.401a28.252 28.252 0 0 0 2.291 12.657c1.172 2.713 2.601 5.472 4.06 8.196 7.431 13.808 15.807 26.47-3.582 25.133-2.107.514-4.142.92-6.105 1.213-4.603.702-8.811.802-12.585.241 4.838 1.627 10.602 1.845 17.166.844a68.439 68.439 0 0 0 6.105-1.213c19.389 1.336 11.013-11.326 3.582-25.134z"/></g><path d="M161.674 322.018c.144.082.309.128.473.144-.226.216-.447.426-.668.642l.195-.786z" fill="#7A5545"/><path d="M180.722 327.501c-3.423-4.39-2.143-10.836 2.723-13.542a60.684 60.684 0 0 1 2.526-1.326c1.891-.941 3.833-1.788 5.843-2.441a36.886 36.886 0 0 1 3.729-.991 60.723 60.723 0 0 0-6.186.366c-3.083.328-6.156.868-9.105 1.829-2.01.653-3.952 1.501-5.843 2.441-3.443 1.706-6.742 3.736-9.733 6.141 5.056 15.452 17.506 19.661 35.097 16.051-8.123-.147-14.592-2.809-19.051-8.528z" fill="#650000" opacity=".3"/><path d="M96.243 151.859c-1.574 3.587-3.649 7.006-5.929 10.18-11.941 16.344-26.253 31.623-32.744 51.137l.014-1.09c2.618 7.624 13.944 8.081 20.722 6.683 2.698-.554 5.334-1.451 7.683-2.765a1.799 1.799 0 0 1 2.68 1.567c.01 11.029 0 22.069-.261 33.122-.366 13.809-1.002 27.747-3.248 41.449-1.457 8.249-3.965 16.269-6.715 24.183a149.61 149.61 0 0 1-3.05 7.794l-.411.962c-1.412 2.704-.665 5.916 2.336 7.161 3.485 1.384 7.452.855 11.218.294.26-.043.527-.026.766.036 10.747 2.838 23.009 4.429 29.749-6.299 4.078-6.35 6.2-13.965 8.562-21.179 1.151-3.812 2.614-7.649 4.509-11.143 3.772-7.053 9.249-13.053 14.787-18.716 1.068-1.136 3.076-.322 3.078 1.216.166 7.403 2.739 14.565 6.851 20.708 1.102 1.647 2.173 3.434 3.002 5.236.782 1.621 1.527 3.821 2.188 5.488l4.116 10.796c1.107 3.549 2.713 6.968 5.078 9.697 4.756 5.704 12.439 7.441 19.665 7.021 3.915-.12 7.813-1.032 11.696-1.769 3.081.086 9.327.437 9.837-3.211.221-2.375-.802-4.724-1.778-7.03-1.482-3.278-3.332-6.516-5.145-9.797-3.678-6.735-7.862-13.86-7.942-21.833-.081-6.31 1.152-12.553 2.741-18.623.871-3.581 1.296-8.514 1.721-12.184 1.982-18.864 1.403-38.067-2.891-56.57-2.67-11.261-6.61-22.163-11.96-32.471a.986.986 0 0 1 .423-1.327.992.992 0 0 1 1.272.331c5.75 8.69 10.053 18.384 12.983 28.396.263.999.925 3.169 1.168 4.118.714 3.189 1.565 6.55 2.068 9.765 2.92 16.845 2.847 34.073.982 51.015-.365 2.829-.746 7.31-1.52 10.024-1.517 5.669-2.729 11.522-2.702 17.4a26.297 26.297 0 0 0 2.316 10.091c3.002 6.834 7.087 13.113 10.145 20.061 5.184 11.553.189 16.518-11.935 15.436l.548-.046-.02.004c-7.803 1.831-16.106 2.904-23.987.41-8.262-2.483-13.847-9.736-16.166-17.747.324.861-4.197-10.991-4.075-10.677-.977-2.558-1.947-5.336-3.349-7.666-.378-.674-1.046-1.692-1.48-2.353-4.454-6.641-7.275-14.545-7.446-22.597l3.077 1.216c-4.044 4.106-7.937 8.373-11.231 13.067-3.247 4.64-5.592 9.926-7.195 15.35-3.668 10.761-6.949 25.37-18.502 30.312-7.737 3.158-16.415 1.55-24.17-.445l.766.036c-4.289.646-9.003 1.225-13.263-.547-4.442-1.818-6.424-7.033-4.396-11.415.108-.229.489-1.147.605-1.407 3.927-9.407 7.048-19.212 9.174-29.189 4.263-25.029 3.66-50.608 3.813-75.95l2.68 1.566c-9.419 5.458-29.414 6.456-33.61-6.01a1.76 1.76 0 0 1 .015-1.089c1.998-5.903 4.685-11.524 7.775-16.865 6.86-11.982 15.95-22.395 24.135-33.381 2.57-3.507 5.118-7.312 6.846-11.295.942-2.265 4.304-1.046 3.331 1.358z" fill="#650000"/><path d="M115.035 260.816c18.714 12.944 39.603 17.444 60.767 7.59 6.545-2.969 12.657-6.944 18.388-11.441a.91.91 0 0 1 1.282.152.914.914 0 0 1-.098 1.231c-5.444 5.027-11.522 9.481-18.258 12.824-17.531 8.946-37.438 7.959-54.154-2.305-3.17-1.887-6.255-4.145-9.105-6.49-.943-.789.134-2.271 1.178-1.561zM78.856 218.764c4.585-1.567 9.093-3.34 13.007-6.244 3.959-2.901 7.262-6.65 9.861-10.847.42-.675 1.472-.117 1.127.616-2.23 4.611-5.335 8.901-9.316 12.319-3.964 3.437-8.746 5.937-13.77 7.423a1.692 1.692 0 0 1-2.102-1.147c-.273-.921.283-1.869 1.193-2.12z" fill="#650000"/><path d="M158.536 166.917c-12.42-.768-24.67 5.899-32.979 15.339-8.6 9.77-13.561 22.789-13.684 35.913-.052 5.553.744 11.152 2.736 16.321 2.011 5.221 5.199 9.904 8.848 14.103 2.401 2.763 5.059 5.371 8.256 7.105 2.863 1.552 6.055 2.348 9.227 3.032 10.834 2.335 22.218 3.516 32.896.528s20.561-10.817 23.647-21.656c1.764-6.195 1.229-12.812.376-19.204-1.572-11.77-4.29-23.68-10.669-33.622-6.379-9.941-17.001-17.668-28.654-17.859-1.438-.024-1.438-.024-4.099.011z" fill="#EFC879"/><path d="M124.04 321.003a1.54 1.54 0 0 1-1.271-.665c-9.207-13.338-28.243-16.226-44.278-6.713a1.543 1.543 0 0 1-1.573-2.652c8.463-5.021 18.078-6.977 27.069-5.506 8.914 1.457 16.485 6.116 21.32 13.118a1.542 1.542 0 0 1-1.267 2.418zM86.815 334.256c-1.086-5.826 1.098-11.785 5.11-15.931a.991.991 0 0 1 1.535 1.245c-2.921 4.031-4.161 9.049-2.599 13.766.75 2.863-3.479 3.834-4.046.92zM164.464 320.864a1.54 1.54 0 0 1-.905-2.79c10.247-7.425 26.085-14.954 43.351-8.661a1.542 1.542 0 0 1-1.056 2.897c-15.992-5.83-30.844 1.275-40.486 8.26-.274.198-.59.294-.904.294zM200.435 334.625c1.138-5.35-1.17-10.783-4.439-15.11-.821-1.105.733-2.412 1.683-1.414 4.275 4.455 7.528 10.684 6.866 17.093-.33 2.9-4.58 2.318-4.11-.569z" fill="#650000"/><path d="M106.226 193.141c-2.374 6.676-6.094 12.95-10.97 18.068a42.897 42.897 0 0 1-6.178 5.38v.005a40.051 40.051 0 0 1-3.936 2.493c-.262.144-.524.287-.791.416-.005.01-.01.015-.016.01-10.498 4.599-26.017 3.233-28.833-6.038 2.842-8.545 7.19-16.382 11.999-23.571 2.698 2.328 5.807 4.152 9.214 5.2 6.639 2.04 14.414.817 19.517-3.885 1.485-1.372 2.764-3.021 4.542-3.977 1.773-.961 4.317-.956 5.494.683 1.053 1.47.57 3.51-.042 5.216zM179.393 154.525c-24.676 5.931-51.023 4.718-75.082-3.345h-9.733c-1.876 4.599-5.463 9.682-9.78 15.308 14.585 7.436 32.38 5.925 48.87 4.142 6.789-.729 13.597-1.469 20.221-3.124 9.312-2.328 18.114-6.439 26.182-11.65l-.678-1.331z" fill="#650000" opacity=".3"/><path d="m81.72 273.2-.338-.118c.01-.222.292-.057.339.118z" fill="#6D184E" opacity=".3"/><path d="M146.87 277.568c-3.658 3.71-7.127 7.533-10.164 11.603-3.53 4.717-6.208 10.02-7.986 15.637-1.783 5.632-3.381 10.735-5.159 15.139-5.776 14.306-13.479 21.269-35.879 15.262-.4.067-.796.128-1.187.185l-.118.015c-.21.031-.416.057-.622.088a47.3 47.3 0 0 1-1.361.149l-.494.046c-.21.021-.421.036-.632.046-.252.021-.493.031-.735.041a6.776 6.776 0 0 1-.344.011c-.282.01-.555.015-.827.015-3.597 0-6.367-.755-8.104-2.451a6.941 6.941 0 0 1-.416-.442 6.4 6.4 0 0 1-.977-1.567c-.061-.144-.107-.288-.159-.432 1.948.015 4.137-.154 6.557-.488 5.555 1.228 10.206 1.804 14.147 1.783 4.312-3.412 6.557-8.782 8.613-13.911.956-2.389 1.916-4.779 2.872-7.168-.031-.01-.056-.026-.082-.041a42.001 42.001 0 0 0-11.434-3.197c-.22-.025-.437-.046-.657-.072a36.384 36.384 0 0 1 10.077.149c1.043.165 2.081.381 3.103.638 1.778-4.44 3.556-8.875 5.334-13.31 1.121-3.859 1.645-7.816.242-11.495-1.29-3.371-4.142-6.038-7.461-7.462-3.325-1.418-7.077-1.659-10.643-1.058-1.783.303-3.556.817-5.077 1.793-1.398.894-2.508 2.128-3.464 3.5.345-3.397.627-6.917.859-10.555.513-8.124.776-16.799.904-25.869.015-1.038.03-2.076.041-3.124.036-3.397.062-6.845.072-10.339.344.267.683.54 1.023.812.046-.72.097-1.434.154-2.138.262-3.248.524-6.49.78-9.738.099-1.171.207-2.389.828-3.386.596-.956 1.583-1.578 2.508-2.22a32.661 32.661 0 0 0 10.473-12.03l-.19 1.511c-.458 5.159-.92 10.318-1.377 15.483-.263 2.95-.525 5.915-.335 8.869.442 6.794 3.156 12.93 6.655 18.808 3.5 5.879 7.785 11.511 11.357 17.313.236.205.467.411.704.606 8.288 5.976 17.996 9.974 28.098 11.521l.483 1.47z" fill="#650000" opacity=".3"/><path d="M105.027 7.713c-1.392 2.165-3.194 3.98-5.556 5.327a5.127 5.127 0 0 0-2.575 4.094c-.537 7.526 6.084 15.461 14.636 23.51-7.931 7.25-16.165 12.876-25.159 14.343-3.683-5.51-6.129-11.144-7.404-16.546C74.96 21.481 82.48 6.821 99.27 5.475a32.6 32.6 0 0 1 4.538-.05c1.098.06 1.807 1.37 1.218 2.288z" fill="#EFC879"/><path d="M82.305 40.474c-4.008-16.96 3.512-31.621 20.303-32.966.827-.07 1.682-.101 2.557-.102.288-.879-.375-1.928-1.356-1.981a32.585 32.585 0 0 0-4.538.05c-16.79 1.346-24.31 16.006-20.302 32.966 1.275 5.403 3.721 11.035 7.404 16.546.613-.1 1.221-.223 1.827-.36-2.847-4.74-4.804-9.53-5.895-14.153z" fill="#fff" opacity=".6"/><path d="M105.026 7.713c-1.391 2.165-3.193 3.98-5.555 5.327a5.126 5.126 0 0 0-2.575 4.094c-.537 7.526 6.084 15.461 14.635 23.51-7.93 7.25-16.164 12.876-25.158 14.343-3.683-5.51-6.13-11.144-7.405-16.546a9.189 9.189 0 0 0 1.621.29c2.619.228 5.157-.581 7.402-1.793 2.665-1.437 5.157-3.701 5.648-6.868.75-4.816-3.291-9.744-2.805-14.622.413-4.164 3.925-6.865 7.16-9.101.423-.296.849-.586 1.277-.872a32.603 32.603 0 0 1 4.538-.05c1.098.06 1.807 1.37 1.217 2.288z" fill="#650000" opacity=".3"/><path d="m85.52 56.946-.643-.962c-9.445-14.126-11.449-29.673-5.23-40.575 4.681-8.206 13.31-12.39 24.262-11.782 1.157.065 2.213.766 2.757 1.83.54 1.057.494 2.263-.123 3.226-1.61 2.508-3.689 4.5-6.178 5.92a3.33 3.33 0 0 0-1.673 2.66c-.528 7.328 7.243 15.643 14.071 22.068l1.412 1.33-1.431 1.308c-9.574 8.752-17.862 13.451-26.082 14.79l-1.142.187zm16.35-49.779c-8.649 0-15.387 3.519-19.098 10.024-5.316 9.318-3.553 23.27 4.452 35.808 6.74-1.386 13.687-5.361 21.658-12.396-7.377-7.107-14.373-15.337-13.778-23.597a6.922 6.922 0 0 1 3.478-5.527c1.856-1.059 3.376-2.464 4.631-4.284a32.907 32.907 0 0 0-1.343-.028z" fill="#650000"/><path d="M141.62 4.937c1.695 1.936 3.745 3.466 6.28 4.45a5.13 5.13 0 0 1 3.15 3.67c1.641 7.364-3.738 16.189-11.01 25.41 8.912 6.002 17.886 10.353 26.998 10.478 2.83-5.993 4.419-11.925 4.885-17.456 1.464-17.366-8.135-30.758-24.94-29.614a32.59 32.59 0 0 0-4.496.62c-1.077.22-1.586 1.62-.867 2.442z" fill="#EFC879"/><path d="M168.922 33.99c1.464-17.365-8.134-30.757-24.94-29.613a30.37 30.37 0 0 0-2.544.277c-.415-.827.087-1.962 1.049-2.16a32.588 32.588 0 0 1 4.496-.619c16.805-1.144 26.404 12.248 24.94 29.614-.466 5.53-2.055 11.463-4.885 17.456a29.986 29.986 0 0 1-1.86-.087c2.118-5.107 3.346-10.134 3.744-14.867z" fill="#fff" opacity=".6"/><path d="M141.62 4.937c1.695 1.936 3.745 3.466 6.28 4.45a5.13 5.13 0 0 1 3.15 3.67c1.641 7.364-3.738 16.189-11.01 25.41 8.912 6.002 17.886 10.353 26.998 10.478 2.83-5.993 4.419-11.925 4.885-17.456a9.189 9.189 0 0 1-1.561.525c-2.556.611-5.185.185-7.585-.682-2.848-1.029-5.646-2.9-6.598-5.96-1.453-4.653 1.818-10.124.619-14.876-1.023-4.058-4.894-6.212-8.425-7.947-.461-.23-.925-.455-1.39-.674-1.445.091-2.946.3-4.496.62-1.077.22-1.586 1.62-.867 2.442z" fill="#650000" opacity=".3"/><path d="m168.17 50.757-1.156-.016c-8.328-.113-17.219-3.54-27.978-10.785l-1.608-1.083 1.2-1.523c5.807-7.361 12.267-16.73 10.665-23.9a3.331 3.331 0 0 0-2.047-2.385c-2.672-1.039-5.021-2.703-6.982-4.945-.753-.862-.977-2.047-.599-3.172.382-1.134 1.323-1.983 2.458-2.217 10.754-2.218 19.893.65 25.733 8.076 7.758 9.867 8.068 25.54.809 40.904l-.495 1.046zm-25.515-12.72c8.92 5.782 16.378 8.69 23.249 9.067 6.068-13.582 5.756-27.64-.875-36.073-4.867-6.189-12.555-8.62-21.691-6.874 1.509 1.615 3.219 2.78 5.211 3.556a6.923 6.923 0 0 1 4.255 4.953c1.806 8.082-3.9 17.254-10.149 25.37z" fill="#650000"/><path d="M28.7 81.037c33.331 5.708 56.882-9.632 62.255-32.927-4.843-2.672-11.088-3.785-17.808-3.459l-.01-.001-.226.013c-14.743.782-31.721 8.468-41.208 21.828v.005a40.065 40.065 0 0 0-5.395 10.527 3.07 3.07 0 0 0 2.393 4.014z" fill="#EA984E"/><path d="M26.308 77.022a40.067 40.067 0 0 1 5.395-10.526l.001-.005c9.486-13.36 26.465-21.046 41.207-21.828l.226-.013.01.001c6.72-.327 12.965.787 17.809 3.459a43.565 43.565 0 0 1-.573 2.21c-4.405-1.798-9.674-2.531-15.277-2.259l-.01-.001-.226.013c-14.742.782-31.72 8.467-41.207 21.828v.005a40.064 40.064 0 0 0-5.396 10.526c-.05.152-.085.304-.112.456a3.07 3.07 0 0 1-1.847-3.866z" fill="#fff" opacity=".6"/><path d="M42.297 84.036c-4.478 0-9.123-.406-13.899-1.224a4.865 4.865 0 0 1-3.794-6.36c4.357-13.006 15.43-23.808 30.38-29.638 13.495-5.262 27.61-5.37 36.84-.281l1.188.656-.305 1.323c-2.802 12.154-10.441 22.277-21.513 28.506-8.27 4.653-18.093 7.018-28.897 7.018zm33.085-37.668c-6.01 0-12.607 1.269-19.092 3.798-13.952 5.44-24.259 15.438-28.276 27.43a1.27 1.27 0 0 0 .99 1.67c29.88 5.116 53.726-6.995 59.863-30.206-3.804-1.797-8.437-2.692-13.485-2.692z" fill="#650000"/><path d="M78.205 56.943c-13.047-.331-26.092 5.886-39.135 17.365 16.026.543 30.396-5.787 39.135-17.365z" fill="#FF9AA5"/><path d="M44.767 74.207c-1.871.13-3.772.167-5.697.101 13.043-11.48 26.088-17.696 39.135-17.365a41.195 41.195 0 0 1-3.105 3.643c-10.112.895-20.223 5.634-30.333 13.62z" fill="#6D184E" opacity=".3"/><path d="M28.7 81.037c33.331 5.708 56.882-9.632 62.255-32.927-4.843-2.672-11.088-3.785-17.808-3.459 1.632 8.552-2.351 17.627-9.047 23.19-6.702 5.566-15.744 7.838-24.443 7.392-2.433-.125-5.085-.567-6.687-2.401-1.486-1.703-1.613-4.018-1.267-6.336a40.065 40.065 0 0 0-5.395 10.526 3.07 3.07 0 0 0 2.393 4.015z" fill="#650000" opacity=".3"/><path d="M40.993 75.883c-.656 0-1.313-.011-1.976-.034a1.542 1.542 0 0 1-.966-2.698c13.755-12.105 27.297-18.07 40.193-17.75a1.542 1.542 0 0 1 1.191 2.47c-8.688 11.512-22.617 18.012-38.442 18.012zm33.902-17.337c-10.142.638-20.741 5.403-31.595 14.204 12.693-.544 23.9-5.578 31.595-14.204z" fill="#650000"/><path d="M220.92 67.684c-32.713 8.564-57.5-4.685-64.866-27.43 4.595-3.079 10.721-4.728 17.444-4.982l.01-.003.226-.006c14.755-.494 32.333 5.697 42.938 18.188l.001.005a40.05 40.05 0 0 1 6.284 10.021 3.07 3.07 0 0 1-2.037 4.207z" fill="#EA984E"/><path d="M222.958 63.477a40.08 40.08 0 0 0-6.284-10.021l-.002-.005c-10.604-12.492-28.183-18.682-42.938-18.188l-.226.006-.01.003c-6.723.254-12.848 1.903-17.443 4.983.235.727.49 1.444.761 2.152 4.234-2.172 9.42-3.357 15.025-3.57l.01-.002.226-.006c14.755-.494 32.333 5.697 42.938 18.188l.001.005a40.05 40.05 0 0 1 6.284 10.021c.064.147.111.296.151.445a3.07 3.07 0 0 0 1.507-4.01z" fill="#fff" opacity=".6"/><path d="M201.545 72.113c-8.448 0-16.317-1.593-23.306-4.765-11.568-5.249-20.054-14.675-23.894-26.541l-.418-1.292 1.128-.756c8.754-5.866 22.825-6.979 36.725-2.901 15.398 4.517 27.363 14.323 32.827 26.904a4.88 4.88 0 0 1-.083 4.084 4.866 4.866 0 0 1-3.148 2.58c-6.851 1.793-13.504 2.687-19.831 2.687zM158.218 41.02c8.117 22.595 32.923 32.603 62.246 24.925a1.274 1.274 0 0 0 .844-1.75c-5.038-11.6-16.17-20.671-30.541-24.887-12.288-3.605-24.589-2.929-32.549 1.712z" fill="#650000"/><path d="M169.52 47.954c12.97-1.456 26.503 3.611 40.488 13.921-15.918 1.925-30.782-3.14-40.488-13.921z" fill="#FF9AA5"/><path d="M204.324 62.266a55.1 55.1 0 0 0 5.684-.39c-13.985-10.311-27.518-15.378-40.488-13.922a41.167 41.167 0 0 0 3.409 3.362c10.151.018 20.634 3.866 31.395 10.95z" fill="#6D184E" opacity=".3"/><path d="M220.92 67.684c-32.713 8.564-57.5-4.685-64.866-27.43 4.595-3.079 10.721-4.728 17.444-4.982-.888 8.66 3.864 17.357 11.015 22.32 7.158 4.968 16.362 6.45 24.99 5.255 2.414-.334 5.017-1.004 6.455-2.97 1.333-1.824 1.26-4.142.715-6.421a40.05 40.05 0 0 1 6.284 10.021 3.07 3.07 0 0 1-2.037 4.207z" fill="#650000" opacity=".3"/><path d="M203.363 63.822c-13.848 0-26.34-5.231-34.988-14.837a1.541 1.541 0 0 1 .974-2.563c12.838-1.441 26.827 3.34 41.575 14.213a1.543 1.543 0 0 1-.73 2.77 56.948 56.948 0 0 1-6.831.417zm-30.407-14.557c8.41 7.928 20.007 11.974 32.704 11.423-11.573-7.831-22.556-11.65-32.704-11.423z" fill="#650000"/><path d="M62.118 101.596c6.325-53.762 50.232-73.755 83.18-70.15 16.015 1.753 29.928 12.017 36.98 26.764 4.796 10.028 10.152 19.715 16.214 28.97 4.331 6.612 7.684 13.855 9.771 21.512 10.506 38.548-18.292 54.671-57.856 55.839-62.213 2.507-100.067-18.718-90.34-52.794a64.313 64.313 0 0 0 2.051-10.141z" fill="#EA984E"/><path d="M208.262 108.692c-2.087-7.657-5.44-14.9-9.77-21.511-6.063-9.256-11.419-18.943-16.214-28.971-7.052-14.747-20.965-25.01-36.981-26.763-19.003-2.08-41.652 3.692-58.633 19.265 16.625-13.766 37.888-18.837 55.883-16.867 16.016 1.752 29.929 12.016 36.981 26.763 4.795 10.028 10.151 19.715 16.214 28.97 4.33 6.612 7.683 13.855 9.77 21.512 4.906 18 1.24 31.11-8.089 40.091 11.321-8.984 16.202-22.814 10.839-42.489z" fill="#fff" opacity=".6"/><path d="M155.768 157.126c-58.382 2.42-93.905-18.064-84.776-50.949a63.643 63.643 0 0 0 1.924-9.787c3.77-32.952 21.765-52.754 42.317-61.93-25.075 7.72-48.614 28.873-53.115 67.136a64.313 64.313 0 0 1-2.05 10.141c-9.728 34.076 28.127 55.301 90.339 52.794 30.972-.914 55.344-10.995 59.43-33.822-6.754 17.657-27.901 25.623-54.069 26.417z" fill="#650000" opacity=".3"/><path d="M138.084 92.836c11.574 1.89 23.147 1.356 34.721-1.603 5.044-1.29 10.403-.944 15.192 1.08 32.702 13.818 9.393 64.731-28.159 66.439-53.457 1.598-68.804-24.779-60.476-45.974 5.931-15.095 22.445-23.595 38.478-19.997l.244.055z" fill="#7A5545"/><path d="m136.299 95.35.244.056c11.573 1.89 23.147 1.355 34.721-1.604 5.043-1.29 10.403-.943 15.191 1.08 17.832 7.535 19.008 26.099 10.304 41.701 10.324-16.076 10.06-36.317-8.762-44.27-4.789-2.023-10.148-2.37-15.192-1.08-11.573 2.96-23.147 3.494-34.721 1.603a34.127 34.127 0 0 0-.244-.055c-14.76-3.312-29.922 3.634-36.865 16.536 7.48-11.236 21.576-17.051 35.324-13.967z" fill="#fff" opacity=".6"/><path d="M161.068 153.982c-51.953 1.598-66.869-24.779-58.775-45.974.322-.844.682-1.664 1.066-2.466a31.984 31.984 0 0 0-3.997 7.236c-8.328 21.195 7.019 47.572 60.476 45.974 26.042-1.184 45.226-26.031 43.638-45.761-1.447 18.748-19.104 39.901-42.408 40.991z" fill="#650000" opacity=".3"/><path d="M172.361 92.586c5.284 0 9.568-5.942 9.568-13.272s-4.284-13.272-9.568-13.272c-5.285 0-9.569 5.942-9.569 13.272s4.284 13.272 9.569 13.272z" fill="#650000"/><path d="M169.919 82.812c1.896 0 3.434-2.352 3.434-5.254 0-2.901-1.538-5.254-3.434-5.254-1.896 0-3.433 2.353-3.433 5.254 0 2.902 1.537 5.254 3.433 5.254z" fill="#fff"/><path d="M178.69 84.989c.469-1.715-.059-3.354-1.18-3.661-1.12-.307-2.41.835-2.879 2.55-.469 1.715.059 3.354 1.18 3.661 1.121.307 2.41-.835 2.879-2.55z" fill="#fff" opacity=".35"/><path d="M105.36 83.253c5.6-5.063 13.034-8.045 19.784-3.048 2.019 1.443 3.668 3.25 5.11 5.146a1.776 1.776 0 0 1-2.171 2.697c-1.35-.66-2.771-1.148-4.239-1.403-4.655-.844-9.184.94-13.003 3.766a.627.627 0 0 1-.803-.96c1.23-1.146 2.563-2.21 4.029-3.113 4.488-2.907 10.36-3.502 15.385-1.633l-2.171 2.698c-2.181-3.4-5.194-6.737-9.34-7.254-4.2-.525-8.317 1.734-11.672 4.213-.726.549-1.593-.498-.909-1.109zM155.379 160.104c-25.966.001-45.076-6.963-54.106-19.797-5.753-8.177-6.885-18.382-3.107-27.999 6.123-15.584 23.301-24.517 39.956-20.78l.208.046c11.332 1.846 22.823 1.312 34.157-1.586 5.348-1.367 11.032-.962 16.01 1.142 12.35 5.218 18.263 16.489 15.818 30.149-1.659 9.266-7.026 18.696-14.724 25.871-8.391 7.82-18.936 12.397-29.694 12.886-1.527.045-3.035.068-4.518.068zM130.47 93.249c-12.977 0-25.116 7.792-29.912 19.999-3.509 8.928-2.508 18.013 2.816 25.58 9.033 12.838 29.072 19.459 56.426 18.64 22.053-1.003 38.97-19.801 41.985-36.642 2.253-12.58-2.955-22.541-14.288-27.33-4.464-1.886-9.569-2.247-14.374-1.019-11.692 2.99-23.549 3.538-35.246 1.627a1.289 1.289 0 0 1-.081-.016l-.236-.053a32.38 32.38 0 0 0-7.09-.786z" fill="#650000"/><path d="M173.049 109.832c1.063 0 1.924-2.138 1.924-4.775 0-2.637-.861-4.774-1.924-4.774s-1.924 2.137-1.924 4.774.861 4.775 1.924 4.775zM143.373 110.689c1.128 0 2.042-2.177 2.042-4.861 0-2.684-.914-4.86-2.042-4.86-1.129 0-2.043 2.176-2.043 4.86s.914 4.861 2.043 4.861zM177.679 119.877c-3.024 12.532-25.788 15.934-39.517 5.191 4.884 14.262 14.913 23.298 26.118 21.104 2.997-.587 4.987-3.141 4.803-6.036-.602-9.516 7.278-13.604 8.596-20.259z" fill="#650000"/><path d="M169.056 138.903c-5.283-5.061-18.178-6.524-24.947-2.204 6.009 9.759 25.41 15.021 24.947 2.204z" fill="#FC4F8B"/><path d="M168 138.013c-3.422-.785-7.159-1.005-10.476-.53-3.093.443-3.962 4.147-1.455 6.051a27.2 27.2 0 0 0 4.905 2.944c-5.926-.255-13.498-4.31-16.865-9.779 6.354-4.055 18.104-3.014 23.891 1.314z" fill="#650000" opacity=".3"/><path d="M160.949 148.04c-10.174 0-19.436-8.428-24.245-22.473a1.541 1.541 0 0 1 2.409-1.713c7.418 5.805 18.759 7.715 27.581 4.644 5.153-1.794 8.523-4.984 9.487-8.982a1.543 1.543 0 0 1 3.011.661c-.598 3.016-2.369 5.519-4.082 7.939-2.366 3.344-4.812 6.801-4.488 11.922.234 3.698-2.308 6.914-6.046 7.647a18.88 18.88 0 0 1-3.627.355zm-19.551-19.008c5.191 11.315 13.731 17.359 22.586 15.627 2.199-.431 3.696-2.292 3.561-4.426-.249-3.94.824-7.025 2.293-9.674-.679.309-1.389.593-2.13.851-7.095 2.471-17.435 2.466-26.31-2.378z" fill="#650000"/><path d="M161.558 148.032c-6.623 0-15.048-4.492-18.762-10.524a1.543 1.543 0 0 1 .483-2.108c7.101-4.532 20.899-3.303 26.844 2.39.29.277.46.656.474 1.057.162 4.473-1.837 7.569-5.629 8.717-1.049.318-2.2.468-3.41.468zm-15.194-10.803c4.14 5.205 12.69 8.904 17.711 7.384 2.253-.682 3.386-2.327 3.446-5.018-4.846-4.085-15.048-5.149-21.157-2.366z" fill="#650000"/><path d="M140.627 166.53c-36.753 0-64.48-8.755-76.864-24.499-6.823-8.673-8.698-19.319-5.425-30.788a62.765 62.765 0 0 0 1.993-9.857c3.702-31.469 19.637-48.825 32.352-57.845 15.262-10.825 34.509-15.886 52.811-13.882 16.354 1.79 31.07 12.433 38.407 27.775 4.925 10.298 10.34 19.975 16.096 28.761 4.543 6.937 7.909 14.347 10.001 22.024 4.117 15.107 2.571 27.672-4.596 37.346-9.485 12.803-28.484 19.983-54.942 20.764a245.65 245.65 0 0 1-9.833.201zm-78.509-64.934 1.787.21a66.392 66.392 0 0 1-2.108 10.425c-2.985 10.459-1.373 19.737 4.793 27.576 11.693 14.866 38.361 23.127 73.946 23.128 3.197 0 6.461-.067 9.798-.201 25.337-.748 43.373-7.425 52.178-19.31 6.478-8.744 7.828-20.27 4.016-34.259-1.994-7.313-5.203-14.378-9.54-20.999-5.843-8.92-11.338-18.737-16.333-29.18-6.803-14.229-20.426-24.096-35.553-25.751-34.995-3.826-75.355 18.9-81.198 68.571l-1.786-.21z" fill="#650000"/><path d="M64.31 216.642c23.742-2.452 33.719-30.807 17.474-53.178a17.633 17.633 0 0 1-3.246-8.297 25.536 25.536 0 0 1-.168-3.148c.026-3.722-1.954-7.25-5.338-8.801-8.999-4.125-17.26 9.09-15.411 20.1-16.804 5.01-22.729 28.93-13.478 43.752 4.269 6.839 12.148 10.4 20.168 9.572z" fill="#7A5545"/><path d="M61.97 217.02c-7.417 0-14.184-3.629-18.045-9.814-4.964-7.953-5.808-18.816-2.204-28.348 3.011-7.963 8.549-13.537 15.61-15.721-1.09-7.014 1.797-15.111 6.769-18.92 2.872-2.2 6-2.626 9.038-1.233 3.362 1.541 5.516 5.088 5.489 9.037a25.324 25.324 0 0 0 .166 3.116 17.39 17.39 0 0 0 3.198 8.176c8.311 11.445 10.311 25.639 5.22 37.043-4.217 9.446-12.556 15.475-22.875 16.541-.794.082-1.584.123-2.367.123zm7.653-74.322c-2.141 0-3.932.948-5.21 1.927-4.885 3.742-7.696 11.76-6.54 18.65l.038.224-.218.065c-7.006 2.089-12.508 7.585-15.491 15.475-3.55 9.386-2.722 20.075 2.159 27.895 4.163 6.67 11.794 10.289 19.922 9.452 10.133-1.046 18.319-6.965 22.459-16.239 5.016-11.237 3.037-25.235-5.167-36.532a17.902 17.902 0 0 1-3.292-8.418 25.92 25.92 0 0 1-.17-3.18c.026-3.747-2.01-7.109-5.188-8.565-1.17-.536-2.276-.754-3.302-.754z" fill="#7F3218"/><g opacity=".5"><path d="M74.598 145.162a17.135 17.135 0 0 0 2.98 7.897c.31.443.605.889.895 1.336a25.917 25.917 0 0 1-.103-2.376c.022-3.139-1.388-6.136-3.86-7.93.025.359.048.718.088 1.073z" fill="#6D184E"/><path d="M83.772 166.446c4.49 17.826-4.854 35.366-22.236 37.227-7.363.788-14.596-2.601-18.516-9.11-1.36-2.259-2.358-4.741-3.02-7.334-.756 6.89.533 14.057 4.143 19.841 4.269 6.839 12.148 10.4 20.168 9.572 22.697-2.344 32.811-28.365 19.46-50.196z" fill="#650000" opacity=".3"/></g><g opacity=".6" fill="#fff"><path d="M83.838 167.232a45.6 45.6 0 0 1 1.987 2.979 44.038 44.038 0 0 0-4.042-6.747c-.025-.034-.047-.071-.072-.106a17.646 17.646 0 0 0 2.127 3.874zM56.275 168.423a5.67 5.67 0 0 0 3.143-4.963c.205-10.04 7.644-20.152 15.669-16.474a8.77 8.77 0 0 1 2.886 2.144c-.732-2.566-2.457-4.773-4.942-5.912-8.999-4.125-17.26 9.09-15.411 20.1-16.804 5.01-22.729 28.93-13.478 43.752.1.161.212.31.316.467-6.1-13.708-1.26-32.641 11.817-39.114z"/></g><path d="M61.966 218.561c-7.946 0-15.204-3.897-19.35-10.539-5.212-8.352-6.108-19.736-2.337-29.71 2.962-7.833 8.513-13.668 15.37-16.229-.646-7.215 2.432-15.198 7.513-19.09 3.306-2.532 7.078-3.034 10.619-1.41 3.911 1.793 6.42 5.894 6.387 10.448a23.763 23.763 0 0 0 .156 2.926 15.836 15.836 0 0 0 2.915 7.45c8.633 11.89 10.695 26.672 5.38 38.578-4.448 9.962-13.242 16.321-24.124 17.446-.849.087-1.693.13-2.53.13zm7.647-74.321c-1.438 0-2.864.537-4.263 1.609-4.392 3.364-7.008 10.907-5.956 17.171a1.8 1.8 0 0 1-1.26 2.022c-6.535 1.948-11.681 7.113-14.49 14.543-3.383 8.946-2.607 19.113 2.024 26.533 3.85 6.166 10.925 9.513 18.456 8.734h.001c9.569-.988 17.3-6.577 21.209-15.334 4.792-10.735 2.874-24.145-5.007-34.997a19.45 19.45 0 0 1-3.576-9.145 27.435 27.435 0 0 1-.18-3.369c.022-3.142-1.662-5.95-4.289-7.154-.892-.409-1.783-.613-2.67-.613z" fill="#650000"/><path d="M61.173 218.541a1.8 1.8 0 0 1 0-3.598c12.026 0 17.973-5.769 18.532-11.487.448-4.583-2.726-9.924-10.828-11.524a1.797 1.797 0 0 1-.056-3.517c6.446-1.485 10.04-5.133 9.612-9.759-.57-6.162-8.085-13.003-20.889-13.541a1.799 1.799 0 0 1 .152-3.594c14.843.624 23.608 9.124 24.318 16.804.376 4.052-1.459 8.84-7.206 11.766 6.44 3.053 8.967 8.701 8.477 13.715-.717 7.334-7.833 14.735-22.112 14.735z" fill="#650000"/><path d="m69.225 191.966-10.449-.706c-1.348-.115-1.344-2.073 0-2.184l10.45-.707c2.538-.07 2.543 3.666 0 3.597z" fill="#650000"/></svg>