<svg width="1000" height="180" viewBox="0 0 1000 180" fill="none" xmlns="http://www.w3.org/2000/svg">
<rect width="1000" height="180" rx="15" fill="#FAF7F5"/>
<path fill-rule="evenodd" clip-rule="evenodd" d="M493.825 108.03L493.97 108.003L494.103 108.066C494.16 108.093 494.215 108.119 494.27 108.145L494.285 108.152C495.275 108.622 495.985 108.958 496.802 109.191C497.657 109.435 498.645 109.568 500.19 109.584C501.736 109.568 502.724 109.435 503.578 109.191C504.395 108.958 505.105 108.622 506.095 108.152L506.41 108.003L506.555 108.03C507.172 108.143 507.676 108.26 508.116 108.401C508.907 108.654 509.472 108.982 510.125 109.485L510.233 109.568L510.278 109.698C510.599 110.629 510.785 111.409 510.792 112.249C510.799 113.085 510.628 113.948 510.282 115.045L510.253 115.135L506.766 119.14L506.7 119.178C505.442 119.902 503.872 120.495 502.611 120.904C501.978 121.11 501.417 121.272 501.003 121.382C500.796 121.437 500.625 121.48 500.498 121.51C500.435 121.524 500.381 121.536 500.338 121.545L500.334 121.546C500.311 121.55 500.252 121.562 500.197 121.564V121.564C500.194 121.564 500.192 121.564 500.19 121.564C500.188 121.564 500.186 121.564 500.184 121.564V121.564C500.129 121.562 500.07 121.55 500.046 121.546L500.042 121.545C499.999 121.536 499.945 121.524 499.882 121.51C499.756 121.48 499.584 121.437 499.377 121.382C498.963 121.272 498.402 121.11 497.769 120.904C496.509 120.495 494.938 119.902 493.68 119.178L493.614 119.14L490.127 115.135L490.099 115.045C489.752 113.948 489.581 113.085 489.588 112.249C489.595 111.409 489.781 110.629 490.102 109.698L490.147 109.568L490.255 109.485C490.908 108.982 491.473 108.654 492.264 108.401C492.704 108.26 493.208 108.143 493.825 108.03ZM500.19 120.643C500.191 120.643 500.191 120.643 500.192 120.643C500.218 120.637 500.251 120.63 500.291 120.621C500.406 120.594 500.568 120.554 500.768 120.5C501.167 120.394 501.713 120.237 502.329 120.036C503.422 119.681 504.718 119.196 505.816 118.622L503.324 114.906L507.244 109.105C507.03 109.054 506.796 109.004 506.534 108.954L506.463 108.988C505.497 109.446 504.721 109.815 503.829 110.069C502.869 110.343 501.792 110.481 500.196 110.496V110.496C500.194 110.496 500.192 110.496 500.19 110.496C500.188 110.496 500.187 110.496 500.185 110.496V110.496C498.588 110.481 497.512 110.343 496.552 110.069C495.66 109.815 494.884 109.446 493.917 108.988L493.846 108.954C493.584 109.004 493.35 109.054 493.137 109.105L497.057 114.906L494.565 118.622C495.663 119.196 496.958 119.681 498.051 120.036C498.667 120.237 499.213 120.394 499.613 120.5C499.812 120.554 499.974 120.594 500.089 120.621C500.11 120.626 500.129 120.63 500.146 120.634C500.163 120.637 500.177 120.641 500.19 120.643ZM495.956 114.908L492.222 109.383C491.75 109.565 491.364 109.793 490.921 110.125C490.645 110.948 490.506 111.591 490.501 112.256C490.495 112.938 490.629 113.674 490.941 114.68L493.861 118.034L495.956 114.908ZM504.424 114.908L508.158 109.383C508.63 109.565 509.016 109.793 509.459 110.125C509.735 110.948 509.874 111.591 509.879 112.256C509.885 112.938 509.752 113.674 509.44 114.68L506.52 118.034L504.424 114.908Z" fill="#3F3F46"/>
<path fill-rule="evenodd" clip-rule="evenodd" d="M468.873 25L469.651 25.4698L460.867 43.4454C461.624 48.8742 462.18 50.8892 463.293 53.2028C464.945 55.2866 466.522 56.8525 468.345 58.0018C471.813 60.1889 476.26 60.9247 484.029 60.6523L491.332 58.4158H509.048L516.351 60.6523C524.12 60.9247 528.567 60.1889 532.035 58.0018C533.858 56.8525 535.435 55.2866 537.087 53.2028C538.2 50.8892 538.756 48.8742 539.513 43.4454L530.729 25.4698L531.507 25L544.098 42.2149L544.12 42.3009C544.937 45.5307 545.371 48.0196 545.38 50.3974C545.389 52.7809 544.971 55.028 544.113 57.7771L544.093 57.8404L544.056 57.8955C541.843 61.1932 539.829 63.7538 537.799 65.7825C533.454 70.125 529.071 71.9916 522.62 73.4943L522.765 74.5483L536.047 71.5285L545.362 74.9156L538.916 81.5598L534.66 84.6332H522.184L521.34 98.1341L522.537 103.099L533.453 120.095L526.663 131.569L513.547 143.265L513.547 143.265L513.547 143.265L512.989 143.764C512.634 144.082 512.126 144.535 511.517 145.08C510.298 146.169 508.673 147.622 507.044 149.076C505.416 150.529 503.786 151.984 502.557 153.079C501.943 153.626 501.429 154.083 501.066 154.404C500.885 154.565 500.741 154.692 500.641 154.78C500.606 154.81 500.577 154.836 500.552 154.857C500.537 154.878 500.52 154.898 500.504 154.914C500.489 154.924 500.471 154.934 500.45 154.943C500.445 154.946 500.437 154.951 500.432 154.955C500.424 154.96 500.4 154.974 500.385 154.982C500.332 154.999 500.262 155.003 500.19 154.998C500.118 155.003 500.049 154.999 499.996 154.982C499.98 154.974 499.957 154.96 499.948 154.955C499.943 154.951 499.935 154.946 499.931 154.943C499.909 154.934 499.891 154.924 499.876 154.914C499.86 154.898 499.844 154.878 499.828 154.857C499.819 154.849 499.809 154.841 499.799 154.832C499.781 154.817 499.761 154.799 499.74 154.78C499.639 154.692 499.495 154.565 499.314 154.404C498.951 154.083 498.437 153.626 497.823 153.079C496.595 151.984 494.964 150.529 493.336 149.076C491.708 147.622 490.082 146.169 488.863 145.08C488.254 144.535 487.746 144.082 487.391 143.764L486.833 143.265L486.833 143.265L486.833 143.265L473.718 131.569L466.927 120.095L477.843 103.099L479.04 98.1341L478.197 84.6332H465.72L461.464 81.5598L455.019 74.9156L464.333 71.5285L477.615 74.5483L477.76 73.4943C471.309 71.9916 466.926 70.125 462.581 65.7825C460.551 63.7538 458.538 61.1932 456.324 57.8955L456.287 57.8404L456.267 57.7771C455.41 55.028 454.991 52.7809 455 50.3974C455.009 48.0196 455.444 45.5307 456.261 42.3009L456.282 42.2149L468.873 25ZM499.723 128.039C499.722 128.223 499.722 128.46 499.721 128.743C499.719 129.482 499.716 130.537 499.713 131.804C499.708 134.338 499.7 137.715 499.696 141.092C499.691 144.468 499.689 147.844 499.692 150.373C499.694 151.638 499.697 152.692 499.702 153.428C499.703 153.463 499.703 153.496 499.703 153.529C499.364 153.228 498.931 152.843 498.43 152.397C497.202 151.303 495.572 149.848 493.944 148.395C492.316 146.941 490.69 145.488 489.472 144.399C488.862 143.855 488.355 143.401 487.999 143.084L487.55 142.682L479.325 105.91L488.081 120.4L491.073 123.069L495.292 128.039H499.723ZM504.666 127.126L507.849 123.377L507.738 123.393C506.95 123.509 505.894 123.663 504.824 123.817C503.753 123.971 502.667 124.125 501.818 124.24C501.393 124.298 501.027 124.346 500.751 124.38C500.509 124.41 500.303 124.434 500.2 124.437V124.437C500.197 124.437 500.193 124.437 500.19 124.437C500.187 124.437 500.184 124.437 500.181 124.437V124.437C500.077 124.434 499.871 124.41 499.629 124.38C499.353 124.346 498.987 124.298 498.563 124.24C497.714 124.125 496.627 123.971 495.557 123.817C494.486 123.663 493.43 123.509 492.642 123.393L492.532 123.377L495.715 127.126H504.666ZM500.19 123.523C500.195 123.523 500.202 123.523 500.212 123.522C500.236 123.52 500.269 123.517 500.311 123.513C500.394 123.504 500.504 123.491 500.639 123.475C500.91 123.441 501.271 123.394 501.694 123.336C502.54 123.221 503.624 123.067 504.694 122.913C505.763 122.759 506.818 122.606 507.606 122.49C508 122.433 508.327 122.384 508.555 122.351L508.778 122.318L511.522 119.87L512.71 113.181C512.176 110.626 511.533 108.888 510.593 107.504C510.07 106.733 509.448 106.061 508.685 105.415C508.043 104.871 507.3 104.346 506.43 103.794L503.966 104.831H496.414L493.95 103.794C493.08 104.346 492.338 104.871 491.695 105.415C490.933 106.061 490.31 106.733 489.787 107.504C488.848 108.888 488.205 110.626 487.67 113.181L488.858 119.87L491.602 122.318C491.66 122.326 491.735 122.337 491.825 122.351C492.054 122.384 492.381 122.433 492.774 122.49C493.562 122.606 494.617 122.759 495.687 122.913C496.757 123.067 497.84 123.221 498.686 123.336C499.109 123.394 499.471 123.441 499.741 123.475C499.876 123.491 499.987 123.504 500.07 123.513C500.111 123.517 500.144 123.52 500.168 123.522C500.178 123.523 500.185 123.523 500.19 123.523ZM499.724 79.3591V103.919H496.599L494.364 102.978V83.0489L499.724 79.3591ZM499.724 70.444V78.251L494.24 82.0263L492.908 74.0317L499.724 70.444ZM499.724 61.0656V69.4126L492.616 73.1539L489.051 65.4507L499.724 61.0656ZM499.724 59.3286V60.0788L488.27 64.785L482.614 66.9059L484.462 61.4743L491.468 59.3286H499.724ZM500.656 103.919H503.781L506.016 102.978V83.0489L500.656 79.3591V103.919ZM500.656 78.251L506.14 82.0263L507.473 74.0317L500.656 70.444V78.251ZM500.656 69.4126L507.765 73.1539L511.329 65.4507L500.656 61.0656V69.4126ZM500.656 60.0788L512.111 64.785L517.767 66.9059L515.918 61.4743L508.912 59.3286H500.656V60.0788ZM500.677 153.529C500.677 153.496 500.678 153.463 500.678 153.428C500.683 152.692 500.686 151.638 500.688 150.373C500.692 147.844 500.689 144.468 500.685 141.092C500.68 137.715 500.673 134.338 500.667 131.804C500.664 130.537 500.661 129.482 500.659 128.743C500.659 128.46 500.658 128.223 500.657 128.039H505.088L509.308 123.069L512.299 120.4L521.055 105.91L512.83 142.682L512.381 143.084C512.026 143.401 511.518 143.855 510.909 144.399C509.69 145.488 508.064 146.941 506.436 148.395C504.808 149.848 503.178 151.303 501.95 152.397C501.45 152.843 501.016 153.228 500.677 153.529ZM462.324 53.288C461.258 50.9943 460.704 48.8447 459.986 43.7354L457.034 42.9701C456.298 45.9523 455.921 48.2388 455.913 50.4009C455.905 52.4963 456.243 54.4958 456.96 56.9166L462.324 53.288ZM460.15 42.8349L457.468 42.1397L466.573 29.6916L460.15 42.8349ZM462.811 54.0606L457.336 57.7638C459.293 60.6477 461.08 62.9248 462.853 64.7577L467.448 58.5062C465.769 57.3715 464.298 55.9015 462.811 54.0606ZM468.221 58.9958L463.505 65.412C467.617 69.4164 471.794 71.1755 478.062 72.6274L481.458 67.4696L483.461 61.5838C476.257 61.7926 471.777 61.102 468.221 58.9958ZM481.715 68.7386L478.725 73.2799V77.6866L483.564 74.8893L481.715 68.7386ZM480.528 77.699L478.742 78.7313L479.141 85.1072C479.619 85.0018 480.029 84.9509 480.425 84.9552C480.966 84.9612 481.45 85.07 482.008 85.2463L482.022 85.2507L482.036 85.2561C483.17 85.6968 484.033 86.1792 484.744 86.7612L480.528 77.699ZM480.415 85.8679C480.09 85.8644 479.731 85.908 479.266 86.0146C479.628 87.5179 479.964 88.4189 480.362 89.0465C480.784 89.712 481.297 90.1012 482.103 90.5775C483.427 91.36 485.014 91.1845 486.55 90.7075C485.949 89.5875 485.436 88.7451 484.79 88.0528C484.068 87.2797 483.158 86.6728 481.72 86.1122C481.211 85.9525 480.826 85.8724 480.415 85.8679ZM490.105 91.4268H487.728L489.714 106.095C490.082 105.663 490.485 105.259 490.931 104.869L490.105 91.4268ZM487.037 111.848C487.519 109.897 488.11 108.399 488.934 107.138L486.827 91.5771C485.207 92.0819 483.3 92.3451 481.639 91.3633C480.787 90.8597 480.128 90.3812 479.591 89.5356C479.524 89.43 479.459 89.3192 479.397 89.2025L479.95 98.0506L487.037 111.848ZM490.229 90.514H487.496L481.321 77.2403L484.066 75.6534L493.354 82.9542L490.229 90.514ZM482.431 67.9493L484.501 74.8341L493.264 81.7226L491.963 73.9172L488.2 65.7858L482.431 67.9493ZM493.451 103.029V85.1075L490.996 91.0475L491.802 104.163C492.305 103.783 492.853 103.409 493.451 103.029ZM486.768 113.322L479.656 99.476L478.757 103.205L487.558 117.769L486.768 113.322ZM474.562 131.099L486.382 141.64L478.358 105.768L474.562 131.099ZM473.813 129.938L477.502 105.319L467.999 120.115L473.813 129.938ZM467.24 83.7205L477.813 75.8135V78.4919L478.139 83.7205H467.24ZM462.064 80.8667L465.286 83.1941L463.98 72.628L456.655 75.2917L462.064 80.8667ZM466.224 83.3404L464.896 72.5924L476.936 75.3297L466.224 83.3404ZM538.057 53.288C539.122 50.9943 539.676 48.8447 540.394 43.7354L543.346 42.9701C544.083 45.9523 544.459 48.2388 544.467 50.4009C544.475 52.4963 544.137 54.4958 543.421 56.9166L538.057 53.288ZM540.23 42.8349L542.912 42.1397L533.808 29.6916L540.23 42.8349ZM537.57 54.0606L543.044 57.7638C541.088 60.6477 539.3 62.9248 537.527 64.7577L532.932 58.5062C534.611 57.3715 536.082 55.9015 537.57 54.0606ZM532.159 58.9958L536.875 65.412C532.764 69.4164 528.586 71.1755 522.318 72.6274L518.923 67.4696L516.92 61.5838C524.123 61.7926 528.603 61.102 532.159 58.9958ZM518.665 68.7386L521.655 73.2799V77.6866L516.816 74.8893L518.665 68.7386ZM519.853 77.699L521.638 78.7313L521.24 85.1072C520.762 85.0018 520.351 84.9509 519.955 84.9552C519.415 84.9612 518.931 85.07 518.372 85.2463L518.358 85.2507L518.344 85.2561C517.21 85.6968 516.347 86.1792 515.636 86.7612L519.853 77.699ZM519.965 85.8679C520.291 85.8644 520.649 85.908 521.114 86.0146C520.752 87.5179 520.417 88.4189 520.018 89.0465C519.596 89.712 519.083 90.1012 518.277 90.5775C516.953 91.36 515.366 91.1845 513.831 90.7075C514.432 89.5875 514.944 88.7451 515.591 88.0528C516.312 87.2797 517.222 86.6728 518.661 86.1122C519.169 85.9525 519.554 85.8724 519.965 85.8679ZM510.276 91.4268H512.652L510.666 106.095C510.299 105.663 509.895 105.259 509.45 104.869L510.276 91.4268ZM513.343 111.848C512.861 109.897 512.271 108.399 511.446 107.138L513.553 91.5771C515.174 92.0819 517.08 92.3451 518.741 91.3633C519.594 90.8597 520.252 90.3812 520.789 89.5356C520.856 89.43 520.921 89.3192 520.984 89.2025L520.431 98.0506L513.343 111.848ZM510.152 90.514H512.884L519.059 77.2403L516.314 75.6534L507.026 82.9542L510.152 90.514ZM517.949 67.9493L515.88 74.8341L507.116 81.7226L508.417 73.9172L512.18 65.7858L517.949 67.9493ZM506.929 103.029V85.1075L509.384 91.0475L508.579 104.163C508.076 103.783 507.527 103.409 506.929 103.029ZM513.612 113.322L520.725 99.476L521.624 103.205L512.822 117.769L513.612 113.322ZM525.818 131.099L513.998 141.64L522.023 105.768L525.818 131.099ZM526.567 129.938L522.878 105.319L532.381 120.115L526.567 129.938ZM533.141 83.7205L522.568 75.8135V78.4919L522.241 83.7205H533.141ZM538.317 80.8667L535.094 83.1941L536.4 72.628L543.725 75.2917L538.317 80.8667ZM534.156 83.3404L535.485 72.5924L523.445 75.3297L534.156 83.3404Z" fill="#3F3F46"/>
<path fill-rule="evenodd" clip-rule="evenodd" d="M493.825 108.03L493.97 108.003L494.103 108.066C494.16 108.093 494.215 108.119 494.27 108.145L494.285 108.152C495.275 108.622 495.985 108.958 496.802 109.191C497.657 109.435 498.645 109.568 500.19 109.584C501.736 109.568 502.724 109.435 503.578 109.191C504.395 108.958 505.105 108.622 506.095 108.152L506.41 108.003L506.555 108.03C507.172 108.143 507.676 108.26 508.116 108.401C508.907 108.654 509.472 108.982 510.125 109.485L510.233 109.568L510.278 109.698C510.599 110.629 510.785 111.409 510.792 112.249C510.799 113.085 510.628 113.948 510.282 115.045L510.253 115.135L506.766 119.14L506.7 119.178C505.442 119.902 503.872 120.495 502.611 120.904C501.978 121.11 501.417 121.272 501.003 121.382C500.796 121.437 500.625 121.48 500.498 121.51C500.435 121.524 500.381 121.536 500.338 121.545L500.334 121.546C500.311 121.55 500.252 121.562 500.197 121.564V121.564C500.194 121.564 500.192 121.564 500.19 121.564C500.188 121.564 500.186 121.564 500.184 121.564V121.564C500.129 121.562 500.07 121.55 500.046 121.546L500.042 121.545C499.999 121.536 499.945 121.524 499.882 121.51C499.756 121.48 499.584 121.437 499.377 121.382C498.963 121.272 498.402 121.11 497.769 120.904C496.509 120.495 494.938 119.902 493.68 119.178L493.614 119.14L490.127 115.135L490.099 115.045C489.752 113.948 489.581 113.085 489.588 112.249C489.595 111.409 489.781 110.629 490.102 109.698L490.147 109.568L490.255 109.485C490.908 108.982 491.473 108.654 492.264 108.401C492.704 108.26 493.208 108.143 493.825 108.03ZM500.19 120.643C500.191 120.643 500.191 120.643 500.192 120.643C500.218 120.637 500.251 120.63 500.291 120.621C500.406 120.594 500.568 120.554 500.768 120.5C501.167 120.394 501.713 120.237 502.329 120.036C503.422 119.681 504.718 119.196 505.816 118.622L503.324 114.906L507.244 109.105C507.03 109.054 506.796 109.004 506.534 108.954L506.463 108.988C505.497 109.446 504.721 109.815 503.829 110.069C502.869 110.343 501.792 110.481 500.196 110.496V110.496C500.194 110.496 500.192 110.496 500.19 110.496C500.188 110.496 500.187 110.496 500.185 110.496V110.496C498.588 110.481 497.512 110.343 496.552 110.069C495.66 109.815 494.884 109.446 493.917 108.988L493.846 108.954C493.584 109.004 493.35 109.054 493.137 109.105L497.057 114.906L494.565 118.622C495.663 119.196 496.958 119.681 498.051 120.036C498.667 120.237 499.213 120.394 499.613 120.5C499.812 120.554 499.974 120.594 500.089 120.621C500.11 120.626 500.129 120.63 500.146 120.634C500.163 120.637 500.177 120.641 500.19 120.643ZM495.956 114.908L492.222 109.383C491.75 109.565 491.364 109.793 490.921 110.125C490.645 110.948 490.506 111.591 490.501 112.256C490.495 112.938 490.629 113.674 490.941 114.68L493.861 118.034L495.956 114.908ZM504.424 114.908L508.158 109.383C508.63 109.565 509.016 109.793 509.459 110.125C509.735 110.948 509.874 111.591 509.879 112.256C509.885 112.938 509.752 113.674 509.44 114.68L506.52 118.034L504.424 114.908Z" fill="#3F3F46"/>
<path fill-rule="evenodd" clip-rule="evenodd" d="M468.873 25L469.651 25.4698L460.867 43.4454C461.624 48.8742 462.18 50.8892 463.293 53.2028C464.945 55.2866 466.522 56.8525 468.345 58.0018C471.813 60.1889 476.26 60.9247 484.029 60.6523L491.332 58.4158H509.048L516.351 60.6523C524.12 60.9247 528.567 60.1889 532.035 58.0018C533.858 56.8525 535.435 55.2866 537.087 53.2028C538.2 50.8892 538.756 48.8742 539.513 43.4454L530.729 25.4698L531.507 25L544.098 42.2149L544.12 42.3009C544.937 45.5307 545.371 48.0196 545.38 50.3974C545.389 52.7809 544.971 55.028 544.113 57.7771L544.093 57.8404L544.056 57.8955C541.843 61.1932 539.829 63.7538 537.799 65.7825C533.454 70.125 529.071 71.9916 522.62 73.4943L522.765 74.5483L536.047 71.5285L545.362 74.9156L538.916 81.5598L534.66 84.6332H522.184L521.34 98.1341L522.537 103.099L533.453 120.095L526.663 131.569L513.547 143.265L513.547 143.265L513.547 143.265L512.989 143.764C512.634 144.082 512.126 144.535 511.517 145.08C510.298 146.169 508.673 147.622 507.044 149.076C505.416 150.529 503.786 151.984 502.557 153.079C501.943 153.626 501.429 154.083 501.066 154.404C500.885 154.565 500.741 154.692 500.641 154.78C500.606 154.81 500.577 154.836 500.552 154.857C500.537 154.878 500.52 154.898 500.504 154.914C500.489 154.924 500.471 154.934 500.45 154.943C500.445 154.946 500.437 154.951 500.432 154.955C500.424 154.96 500.4 154.974 500.385 154.982C500.332 154.999 500.262 155.003 500.19 154.998C500.118 155.003 500.049 154.999 499.996 154.982C499.98 154.974 499.957 154.96 499.948 154.955C499.943 154.951 499.935 154.946 499.931 154.943C499.909 154.934 499.891 154.924 499.876 154.914C499.86 154.898 499.844 154.878 499.828 154.857C499.819 154.849 499.809 154.841 499.799 154.832C499.781 154.817 499.761 154.799 499.74 154.78C499.639 154.692 499.495 154.565 499.314 154.404C498.951 154.083 498.437 153.626 497.823 153.079C496.595 151.984 494.964 150.529 493.336 149.076C491.708 147.622 490.082 146.169 488.863 145.08C488.254 144.535 487.746 144.082 487.391 143.764L486.833 143.265L486.833 143.265L486.833 143.265L473.718 131.569L466.927 120.095L477.843 103.099L479.04 98.1341L478.197 84.6332H465.72L461.464 81.5598L455.019 74.9156L464.333 71.5285L477.615 74.5483L477.76 73.4943C471.309 71.9916 466.926 70.125 462.581 65.7825C460.551 63.7538 458.538 61.1932 456.324 57.8955L456.287 57.8404L456.267 57.7771C455.41 55.028 454.991 52.7809 455 50.3974C455.009 48.0196 455.444 45.5307 456.261 42.3009L456.282 42.2149L468.873 25ZM499.723 128.039C499.722 128.223 499.722 128.46 499.721 128.743C499.719 129.482 499.716 130.537 499.713 131.804C499.708 134.338 499.7 137.715 499.696 141.092C499.691 144.468 499.689 147.844 499.692 150.373C499.694 151.638 499.697 152.692 499.702 153.428C499.703 153.463 499.703 153.496 499.703 153.529C499.364 153.228 498.931 152.843 498.43 152.397C497.202 151.303 495.572 149.848 493.944 148.395C492.316 146.941 490.69 145.488 489.472 144.399C488.862 143.855 488.355 143.401 487.999 143.084L487.55 142.682L479.325 105.91L488.081 120.4L491.073 123.069L495.292 128.039H499.723ZM504.666 127.126L507.849 123.377L507.738 123.393C506.95 123.509 505.894 123.663 504.824 123.817C503.753 123.971 502.667 124.125 501.818 124.24C501.393 124.298 501.027 124.346 500.751 124.38C500.509 124.41 500.303 124.434 500.2 124.437V124.437C500.197 124.437 500.193 124.437 500.19 124.437C500.187 124.437 500.184 124.437 500.181 124.437V124.437C500.077 124.434 499.871 124.41 499.629 124.38C499.353 124.346 498.987 124.298 498.563 124.24C497.714 124.125 496.627 123.971 495.557 123.817C494.486 123.663 493.43 123.509 492.642 123.393L492.532 123.377L495.715 127.126H504.666ZM500.19 123.523C500.195 123.523 500.202 123.523 500.212 123.522C500.236 123.52 500.269 123.517 500.311 123.513C500.394 123.504 500.504 123.491 500.639 123.475C500.91 123.441 501.271 123.394 501.694 123.336C502.54 123.221 503.624 123.067 504.694 122.913C505.763 122.759 506.818 122.606 507.606 122.49C508 122.433 508.327 122.384 508.555 122.351L508.778 122.318L511.522 119.87L512.71 113.181C512.176 110.626 511.533 108.888 510.593 107.504C510.07 106.733 509.448 106.061 508.685 105.415C508.043 104.871 507.3 104.346 506.43 103.794L503.966 104.831H496.414L493.95 103.794C493.08 104.346 492.338 104.871 491.695 105.415C490.933 106.061 490.31 106.733 489.787 107.504C488.848 108.888 488.205 110.626 487.67 113.181L488.858 119.87L491.602 122.318C491.66 122.326 491.735 122.337 491.825 122.351C492.054 122.384 492.381 122.433 492.774 122.49C493.562 122.606 494.617 122.759 495.687 122.913C496.757 123.067 497.84 123.221 498.686 123.336C499.109 123.394 499.471 123.441 499.741 123.475C499.876 123.491 499.987 123.504 500.07 123.513C500.111 123.517 500.144 123.52 500.168 123.522C500.178 123.523 500.185 123.523 500.19 123.523ZM499.724 79.3591V103.919H496.599L494.364 102.978V83.0489L499.724 79.3591ZM499.724 70.444V78.251L494.24 82.0263L492.908 74.0317L499.724 70.444ZM499.724 61.0656V69.4126L492.616 73.1539L489.051 65.4507L499.724 61.0656ZM499.724 59.3286V60.0788L488.27 64.785L482.614 66.9059L484.462 61.4743L491.468 59.3286H499.724ZM500.656 103.919H503.781L506.016 102.978V83.0489L500.656 79.3591V103.919ZM500.656 78.251L506.14 82.0263L507.473 74.0317L500.656 70.444V78.251ZM500.656 69.4126L507.765 73.1539L511.329 65.4507L500.656 61.0656V69.4126ZM500.656 60.0788L512.111 64.785L517.767 66.9059L515.918 61.4743L508.912 59.3286H500.656V60.0788ZM500.677 153.529C500.677 153.496 500.678 153.463 500.678 153.428C500.683 152.692 500.686 151.638 500.688 150.373C500.692 147.844 500.689 144.468 500.685 141.092C500.68 137.715 500.673 134.338 500.667 131.804C500.664 130.537 500.661 129.482 500.659 128.743C500.659 128.46 500.658 128.223 500.657 128.039H505.088L509.308 123.069L512.299 120.4L521.055 105.91L512.83 142.682L512.381 143.084C512.026 143.401 511.518 143.855 510.909 144.399C509.69 145.488 508.064 146.941 506.436 148.395C504.808 149.848 503.178 151.303 501.95 152.397C501.45 152.843 501.016 153.228 500.677 153.529ZM462.324 53.288C461.258 50.9943 460.704 48.8447 459.986 43.7354L457.034 42.9701C456.298 45.9523 455.921 48.2388 455.913 50.4009C455.905 52.4963 456.243 54.4958 456.96 56.9166L462.324 53.288ZM460.15 42.8349L457.468 42.1397L466.573 29.6916L460.15 42.8349ZM462.811 54.0606L457.336 57.7638C459.293 60.6477 461.08 62.9248 462.853 64.7577L467.448 58.5062C465.769 57.3715 464.298 55.9015 462.811 54.0606ZM468.221 58.9958L463.505 65.412C467.617 69.4164 471.794 71.1755 478.062 72.6274L481.458 67.4696L483.461 61.5838C476.257 61.7926 471.777 61.102 468.221 58.9958ZM481.715 68.7386L478.725 73.2799V77.6866L483.564 74.8893L481.715 68.7386ZM480.528 77.699L478.742 78.7313L479.141 85.1072C479.619 85.0018 480.029 84.9509 480.425 84.9552C480.966 84.9612 481.45 85.07 482.008 85.2463L482.022 85.2507L482.036 85.2561C483.17 85.6968 484.033 86.1792 484.744 86.7612L480.528 77.699ZM480.415 85.8679C480.09 85.8644 479.731 85.908 479.266 86.0146C479.628 87.5179 479.964 88.4189 480.362 89.0465C480.784 89.712 481.297 90.1012 482.103 90.5775C483.427 91.36 485.014 91.1845 486.55 90.7075C485.949 89.5875 485.436 88.7451 484.79 88.0528C484.068 87.2797 483.158 86.6728 481.72 86.1122C481.211 85.9525 480.826 85.8724 480.415 85.8679ZM490.105 91.4268H487.728L489.714 106.095C490.082 105.663 490.485 105.259 490.931 104.869L490.105 91.4268ZM487.037 111.848C487.519 109.897 488.11 108.399 488.934 107.138L486.827 91.5771C485.207 92.0819 483.3 92.3451 481.639 91.3633C480.787 90.8597 480.128 90.3812 479.591 89.5356C479.524 89.43 479.459 89.3192 479.397 89.2025L479.95 98.0506L487.037 111.848ZM490.229 90.514H487.496L481.321 77.2403L484.066 75.6534L493.354 82.9542L490.229 90.514ZM482.431 67.9493L484.501 74.8341L493.264 81.7226L491.963 73.9172L488.2 65.7858L482.431 67.9493ZM493.451 103.029V85.1075L490.996 91.0475L491.802 104.163C492.305 103.783 492.853 103.409 493.451 103.029ZM486.768 113.322L479.656 99.476L478.757 103.205L487.558 117.769L486.768 113.322ZM474.562 131.099L486.382 141.64L478.358 105.768L474.562 131.099ZM473.813 129.938L477.502 105.319L467.999 120.115L473.813 129.938ZM467.24 83.7205L477.813 75.8135V78.4919L478.139 83.7205H467.24ZM462.064 80.8667L465.286 83.1941L463.98 72.628L456.655 75.2917L462.064 80.8667ZM466.224 83.3404L464.896 72.5924L476.936 75.3297L466.224 83.3404ZM538.057 53.288C539.122 50.9943 539.676 48.8447 540.394 43.7354L543.346 42.9701C544.083 45.9523 544.459 48.2388 544.467 50.4009C544.475 52.4963 544.137 54.4958 543.421 56.9166L538.057 53.288ZM540.23 42.8349L542.912 42.1397L533.808 29.6916L540.23 42.8349ZM537.57 54.0606L543.044 57.7638C541.088 60.6477 539.3 62.9248 537.527 64.7577L532.932 58.5062C534.611 57.3715 536.082 55.9015 537.57 54.0606ZM532.159 58.9958L536.875 65.412C532.764 69.4164 528.586 71.1755 522.318 72.6274L518.923 67.4696L516.92 61.5838C524.123 61.7926 528.603 61.102 532.159 58.9958ZM518.665 68.7386L521.655 73.2799V77.6866L516.816 74.8893L518.665 68.7386ZM519.853 77.699L521.638 78.7313L521.24 85.1072C520.762 85.0018 520.351 84.9509 519.955 84.9552C519.415 84.9612 518.931 85.07 518.372 85.2463L518.358 85.2507L518.344 85.2561C517.21 85.6968 516.347 86.1792 515.636 86.7612L519.853 77.699ZM519.965 85.8679C520.291 85.8644 520.649 85.908 521.114 86.0146C520.752 87.5179 520.417 88.4189 520.018 89.0465C519.596 89.712 519.083 90.1012 518.277 90.5775C516.953 91.36 515.366 91.1845 513.831 90.7075C514.432 89.5875 514.944 88.7451 515.591 88.0528C516.312 87.2797 517.222 86.6728 518.661 86.1122C519.169 85.9525 519.554 85.8724 519.965 85.8679ZM510.276 91.4268H512.652L510.666 106.095C510.299 105.663 509.895 105.259 509.45 104.869L510.276 91.4268ZM513.343 111.848C512.861 109.897 512.271 108.399 511.446 107.138L513.553 91.5771C515.174 92.0819 517.08 92.3451 518.741 91.3633C519.594 90.8597 520.252 90.3812 520.789 89.5356C520.856 89.43 520.921 89.3192 520.984 89.2025L520.431 98.0506L513.343 111.848ZM510.152 90.514H512.884L519.059 77.2403L516.314 75.6534L507.026 82.9542L510.152 90.514ZM517.949 67.9493L515.88 74.8341L507.116 81.7226L508.417 73.9172L512.18 65.7858L517.949 67.9493ZM506.929 103.029V85.1075L509.384 91.0475L508.579 104.163C508.076 103.783 507.527 103.409 506.929 103.029ZM513.612 113.322L520.725 99.476L521.624 103.205L512.822 117.769L513.612 113.322ZM525.818 131.099L513.998 141.64L522.023 105.768L525.818 131.099ZM526.567 129.938L522.878 105.319L532.381 120.115L526.567 129.938ZM533.141 83.7205L522.568 75.8135V78.4919L522.241 83.7205H533.141ZM538.317 80.8667L535.094 83.1941L536.4 72.628L543.725 75.2917L538.317 80.8667ZM534.156 83.3404L535.485 72.5924L523.445 75.3297L534.156 83.3404Z" fill="#3F3F46"/>
<path d="M179.216 120V59.73H188.482V111.8H205.784V120H179.216ZM211.49 120V82.362H220.674V120H211.49ZM216.082 75.31C214.387 75.31 212.966 74.736 211.818 73.588C210.724 72.44 210.178 71.0187 210.178 69.324C210.178 67.7933 210.724 66.4813 211.818 65.388C212.966 64.2947 214.387 63.748 216.082 63.748C217.776 63.748 219.17 64.2947 220.264 65.388C221.412 66.4813 221.986 67.7933 221.986 69.324C221.986 71.0187 221.412 72.44 220.264 73.588C219.17 74.736 217.776 75.31 216.082 75.31ZM231.174 120V82.362H240.03V89.168C241.287 86.4893 243.091 84.5213 245.442 83.264C247.792 82.0067 250.416 81.378 253.314 81.378C257.031 81.4327 259.846 82.0887 261.76 83.346C263.673 84.6033 264.985 86.2707 265.696 88.348C266.898 86.216 268.702 84.5213 271.108 83.264C273.513 82.0067 276.055 81.378 278.734 81.378C282.834 81.378 285.868 82.1707 287.836 83.756C289.858 85.2867 291.17 87.528 291.772 90.48C292.428 93.3773 292.756 96.9307 292.756 101.14V120H283.818V101.058C283.818 96.8487 283.38 93.7327 282.506 91.71C281.686 89.6873 279.936 88.676 277.258 88.676C273.65 88.676 270.998 89.8787 269.304 92.284C267.609 94.6893 266.762 97.696 266.762 101.304V120H257.906V99.746C257.906 97.3953 257.796 95.4 257.578 93.76C257.414 92.12 256.84 90.8627 255.856 89.988C254.926 89.1133 253.314 88.676 251.018 88.676C249.104 88.676 247.3 89.25 245.606 90.398C243.966 91.546 242.626 93.0767 241.588 94.99C240.604 96.8487 240.112 98.9533 240.112 101.304V120H231.174ZM325.067 120.82C322.881 120.82 320.885 120.465 319.081 119.754C317.277 118.989 315.747 118.032 314.489 116.884C313.287 115.736 312.385 114.561 311.783 113.358L311.619 120H303.091V59.73H311.783V82.936L311.373 89.332C311.975 87.9107 312.986 86.5987 314.407 85.396C315.829 84.1933 317.496 83.2367 319.409 82.526C321.377 81.7607 323.455 81.378 325.641 81.378C329.413 81.378 332.666 82.2253 335.399 83.92C338.133 85.56 340.237 87.8833 341.713 90.89C343.189 93.842 343.927 97.286 343.927 101.222C343.927 105.322 343.053 108.848 341.303 111.8C339.554 114.697 337.258 116.939 334.415 118.524C331.573 120.055 328.457 120.82 325.067 120.82ZM323.591 113.44C327.309 113.44 330.069 112.265 331.873 109.914C333.732 107.563 334.661 104.666 334.661 101.222C334.661 97.6687 333.732 94.744 331.873 92.448C330.069 90.0973 327.309 88.922 323.591 88.922C321.623 88.922 319.792 89.414 318.097 90.398C316.403 91.3273 315.036 92.6667 313.997 94.416C313.013 96.1653 312.521 98.2427 312.521 100.648V101.222C312.576 103.627 313.095 105.759 314.079 107.618C315.063 109.477 316.375 110.925 318.015 111.964C319.71 112.948 321.569 113.44 323.591 113.44ZM370.019 120.82C366.684 120.82 363.568 120.027 360.671 118.442C357.828 116.857 355.532 114.588 353.783 111.636C352.033 108.684 351.159 105.158 351.159 101.058C351.159 97.122 351.897 93.678 353.373 90.726C354.903 87.774 357.035 85.478 359.769 83.838C362.557 82.198 365.864 81.378 369.691 81.378C371.987 81.378 374.064 81.788 375.923 82.608C377.836 83.3733 379.421 84.33 380.679 85.478C381.991 86.5713 382.865 87.6373 383.303 88.676L383.467 82.362H391.913V120H383.549L383.385 113.358C382.838 114.561 381.909 115.736 380.597 116.884C379.339 118.032 377.809 118.989 376.005 119.754C374.201 120.465 372.205 120.82 370.019 120.82ZM371.495 113.44C373.517 113.44 375.349 112.975 376.989 112.046C378.683 111.062 380.023 109.695 381.007 107.946C382.045 106.197 382.565 104.119 382.565 101.714V101.14C382.565 98.68 382.045 96.548 381.007 94.744C380.023 92.8853 378.683 91.464 376.989 90.48C375.349 89.4413 373.517 88.922 371.495 88.922C367.832 88.922 365.071 90.0973 363.213 92.448C361.409 94.7987 360.507 97.696 360.507 101.14C360.507 104.639 361.409 107.563 363.213 109.914C365.071 112.265 367.832 113.44 371.495 113.44Z" fill="#3F3F46" fill-opacity="0.9"/>
<path d="M636.568 126L608.688 65.73H619.102L637.142 107.14L655.264 65.73H665.596L637.798 126H636.568ZM670.13 126V88.362H679.314V126H670.13ZM674.722 81.31C673.028 81.31 671.606 80.736 670.458 79.588C669.365 78.44 668.818 77.0187 668.818 75.324C668.818 73.7933 669.365 72.4813 670.458 71.388C671.606 70.2947 673.028 69.748 674.722 69.748C676.417 69.748 677.811 70.2947 678.904 71.388C680.052 72.4813 680.626 73.7933 680.626 75.324C680.626 77.0187 680.052 78.44 678.904 79.588C677.811 80.736 676.417 81.31 674.722 81.31ZM708.249 126.82C703.547 126.82 699.721 125.918 696.769 124.114C693.817 122.255 691.657 119.823 690.291 116.816C688.924 113.809 688.241 110.611 688.241 107.222C688.241 103.122 689.061 99.596 690.701 96.644C692.395 93.692 694.719 91.4233 697.671 89.838C700.623 88.198 703.957 87.378 707.675 87.378C713.633 87.378 717.979 89.0453 720.713 92.38C723.446 95.66 724.813 100.088 724.813 105.664C724.813 107.14 724.731 108.671 724.567 110.256H697.507C698.108 113.645 699.311 116.078 701.115 117.554C702.973 118.975 705.433 119.686 708.495 119.686C711.447 119.686 713.77 119.413 715.465 118.866C717.159 118.319 718.553 117.773 719.647 117.226L722.353 123.54C721.259 124.251 719.565 124.989 717.269 125.754C714.973 126.465 711.966 126.82 708.249 126.82ZM697.507 104.106H716.203C716.257 100.553 715.465 98.12 713.825 96.808C712.185 95.496 710.053 94.84 707.429 94.84C704.695 94.84 702.454 95.578 700.705 97.054C699.01 98.4753 697.944 100.826 697.507 104.106Z" fill="#3F3F46" fill-opacity="0.9"/>
</svg>
