<svg width="1000" height="180" viewBox="0 0 1000 180" fill="none" xmlns="http://www.w3.org/2000/svg">
<rect width="1000" height="180" rx="15" fill="#212123"/>
<path d="M498.945 147.857C498.443 147.75 496.798 147.472 495.273 147.237C493.748 146.98 492.323 146.68 492.102 146.53C491.882 146.38 491.34 145.696 490.898 144.989L490.076 143.705L491.26 143.448C493.587 142.935 495.152 142.892 497.44 143.277C499.246 143.598 500.108 143.619 502.255 143.47C504.944 143.277 511.546 143.277 511.726 143.47C511.967 143.705 511.526 144.732 510.863 145.524C509.94 146.594 509.098 146.915 505.666 147.472C502.336 148.007 500.189 148.135 498.945 147.857Z" fill="#F2BD0D"/>
<path d="M508.074 140.602C501.633 139.617 501.312 139.617 495.654 140.388C492.905 140.751 490.337 141.03 489.955 140.987L489.253 140.923L487.969 136.963C486.444 132.319 486.444 132.147 487.688 128.851C488.129 127.631 488.511 126.347 488.511 125.983C488.511 125.641 488.109 124.421 487.628 123.287C486.725 121.189 486.002 118.728 485.4 115.688C485.14 114.426 484.538 112.885 482.872 109.332C481.668 106.742 480.685 104.58 480.685 104.538C480.685 104.495 480.966 104.366 481.307 104.259L481.949 104.088L480.525 102.312C478.899 100.257 478.378 99.2082 477.354 95.8265C476.451 92.8729 476.331 92.6802 475.488 93.2153C475.147 93.4294 474.826 93.5364 474.746 93.4508C474.666 93.3651 474.846 91.8455 475.127 90.0477C475.629 86.9014 476.11 82.5352 476.371 78.4258C476.491 76.628 476.471 76.4354 475.99 75.5364C475.709 75.0013 475.468 74.3593 475.468 74.1238C475.468 73.867 476.572 71.8551 477.936 69.6292C479.301 67.4033 480.605 65.2202 480.866 64.7921C481.106 64.3426 481.548 63.7862 481.849 63.5293L482.391 63.0799L482.451 63.5293C482.491 63.7862 482.21 64.4925 481.809 65.156C480.986 66.4829 480.525 68.3022 479.882 72.9039C479.24 77.5055 479 77.3129 482.692 75.1726C486.083 73.1821 487.226 72.2832 488.129 70.9776C488.45 70.5067 488.711 70.2071 488.711 70.3141C488.751 71.4056 489.353 75.7719 489.614 76.949C490.015 78.6185 490.979 81.1654 491.28 81.2724C491.38 81.2938 491.962 80.7374 492.584 80.0311C493.647 78.8111 494.35 77.6981 495.975 74.5091L496.677 73.1607L496.777 75.2582C496.858 76.735 497.038 77.848 497.42 79.0679C498.001 80.9086 500.59 86.559 500.851 86.559C501.152 86.559 503.76 80.8658 504.262 79.1107C504.543 78.1476 504.844 76.6494 504.924 75.7933L505.064 74.2308L507.874 78.4044C509.419 80.716 510.723 82.5138 510.803 82.4282C510.863 82.3426 511.385 80.7374 511.947 78.8539C513.091 75.087 513.492 72.9039 513.271 71.5983L513.151 70.7421L514.455 72.0263C515.458 73.0109 516.522 73.7172 519.03 75.0656C520.816 76.0287 522.321 76.7778 522.361 76.735C522.481 76.6066 521.899 70.9134 521.598 69.0299C521.358 67.6173 521.016 66.7612 519.672 64.4497C519.17 63.5935 518.809 62.8444 518.869 62.7802C518.93 62.716 519.311 62.7588 519.692 62.9086C520.334 63.1227 520.796 63.7434 523.565 68.1096C525.531 71.213 526.735 73.3319 526.795 73.76C526.855 74.2308 526.735 74.6375 526.394 75.1084C525.973 75.7505 525.932 75.9645 525.952 78.49C525.993 81.1012 526.514 86.1951 527.136 89.748C527.437 91.3747 527.538 93.515 527.337 93.515C527.277 93.515 527.056 93.4079 526.855 93.2581C526.655 93.1297 526.354 93.0655 526.193 93.1297C526.053 93.1939 525.431 94.5851 524.849 96.2117C523.565 99.8074 523.163 100.578 521.618 102.44C520.956 103.232 520.414 103.96 520.414 104.067C520.414 104.152 520.575 104.216 520.776 104.216C521.739 104.238 521.679 104.495 520.033 108.048C517.966 112.435 517.304 114.212 516.682 117.037C515.98 120.226 515.478 121.788 514.455 124.078L513.552 126.048L514.375 128.894C515.599 133.175 515.619 132.897 514.295 137.134C513.231 140.623 512.87 141.308 512.248 141.222C512.168 141.201 510.281 140.923 508.074 140.602ZM494.33 131.655C494.33 129.429 494.269 127.546 494.189 127.482C494.109 127.396 493.527 128.402 492.885 129.729C491.26 133.025 491.3 133.838 493.085 135.058C493.587 135.401 494.089 135.679 494.169 135.679C494.249 135.679 494.33 133.86 494.33 131.655ZM509.499 134.737C510.121 134.159 510.241 133.902 510.322 132.961C510.422 132.019 510.342 131.698 509.7 130.392C509.298 129.579 508.696 128.573 508.375 128.166L507.793 127.439L507.773 131.42C507.773 133.603 507.833 135.443 507.894 135.508C508.094 135.743 508.757 135.422 509.499 134.737ZM503.058 123.907C504.322 123.565 505.285 123.479 507.954 123.479H511.285L510.663 123.073C510.322 122.837 509.358 122.409 508.556 122.088L507.071 121.532L494.43 121.489L492.524 122.281C491.48 122.709 490.537 123.158 490.457 123.244C490.377 123.329 491.721 123.415 493.467 123.415C496.115 123.415 496.878 123.479 498.042 123.864C499.827 124.442 501.092 124.442 503.058 123.907ZM490.497 110.723C490.938 104.666 490.718 101.477 489.534 97.6029C488.37 93.729 485.22 89.641 482.11 87.993C481.187 87.5007 480.384 87.1369 480.324 87.2011C480.264 87.2653 480.705 87.8646 481.307 88.5495C481.929 89.2129 482.752 90.1975 483.133 90.7326C483.795 91.6315 485.099 93.943 485.099 94.2213C485.099 94.2855 484.558 93.9644 483.896 93.4936C482.21 92.2736 480.424 91.5459 478.839 91.4175C477.113 91.289 477.113 91.4175 478.518 93.9216C480.625 97.6457 482.631 99.2082 485.621 99.4436C486.484 99.5078 487.307 99.6576 487.447 99.7646C488.069 100.278 488.671 103.532 489.414 110.209C489.594 111.793 489.795 113.441 489.855 113.848C490.056 115.046 490.256 114.083 490.497 110.723ZM512.669 111.857C512.83 110.787 513.151 108.433 513.372 106.656C513.773 103.467 514.535 100.128 514.957 99.679C515.077 99.5506 516 99.3794 516.983 99.2938C519.833 99.0369 521.297 98.0738 523.043 95.2914C523.966 93.836 525.029 91.8027 525.029 91.5031C525.029 91.4389 524.548 91.3747 523.946 91.3747C522.301 91.3747 520.455 92.081 518.408 93.5364C517.385 94.2427 516.522 94.7777 516.462 94.7135C516.381 94.6279 520.093 89.5982 521.799 87.4365C522.08 87.0941 521.98 87.1155 521.117 87.5435C519.19 88.5067 518.067 89.4056 516.482 91.2462C513.372 94.8633 512.087 98.1166 511.566 103.66C511.385 105.608 511.405 106.635 511.666 109.31C511.847 111.108 511.987 112.906 511.987 113.334C511.987 114.683 512.348 113.912 512.669 111.857Z" fill="#F2BD0D"/>
<path d="M481.849 97.2605C481.046 96.6826 479.682 94.0928 479.682 93.1511V92.616L480.344 93.0655C480.765 93.3437 481.066 93.7718 481.207 94.3283C481.568 95.6553 482.029 96.4258 482.832 97.1321C483.554 97.7742 483.575 97.7956 483.093 97.7956C482.812 97.7956 482.25 97.5601 481.849 97.2605Z" fill="#F2BD0D"/>
<path d="M519.431 97.4531C520.093 97.0037 520.776 95.9121 521.036 94.8848C521.237 94.1356 522.24 92.8729 522.642 92.8729C522.903 92.8729 522.862 93.6434 522.541 94.4781C522.18 95.3556 520.735 97.0679 519.993 97.4959C519.231 97.9026 518.789 97.8598 519.431 97.4531Z" fill="#F2BD0D"/>
<path d="M483.595 126.005L482.471 122.966L483.013 120.825C483.314 119.627 483.595 118.578 483.655 118.471C483.715 118.364 484.197 119.627 484.738 121.253C486.103 125.384 486.163 125.577 486.002 126.454C485.862 127.353 485.14 129.044 484.899 129.044C484.819 129.044 484.237 127.674 483.595 126.005Z" fill="#F2BD0D"/>
<path d="M517.043 127.524C516.482 125.534 516.482 124.656 517.023 123.222C517.264 122.602 517.746 121.125 518.087 119.948C518.689 117.957 518.749 117.85 518.99 118.3C519.993 120.269 519.311 126.839 517.926 128.552L517.485 129.108L517.043 127.524Z" fill="#F2BD0D"/>
<path d="M478.699 121.082C477.495 118.449 476.973 114.961 477.134 110.744C477.234 108.09 477.715 104.987 478.077 104.752C478.558 104.431 482.09 112.243 482.09 113.655C482.09 114.554 479.762 122.409 479.481 122.409C479.381 122.409 479.04 121.81 478.699 121.082Z" fill="#F2BD0D"/>
<path d="M523.063 121.403C522.521 119.948 520.816 112.756 520.816 112.007C520.836 111.386 521.297 110.209 522.581 107.555C523.545 105.565 524.407 103.938 524.528 103.938C524.769 103.981 525.17 105.222 525.551 107.063C525.952 109.096 525.912 112.221 525.431 115.945C525.09 118.514 524.909 119.348 524.367 120.483C524.006 121.232 523.625 121.895 523.505 121.938C523.384 121.96 523.183 121.724 523.063 121.403Z" fill="#F2BD0D"/>
<path d="M473.281 110.059C472.097 107.384 471.616 104.152 471.876 100.792C472.037 98.4805 472.639 95.4412 472.94 95.4412C473.241 95.4412 475.869 100.471 475.869 101.049C475.869 101.798 473.943 110.209 473.722 110.445C473.602 110.573 473.442 110.445 473.281 110.059Z" fill="#F2BD0D"/>
<path d="M529.183 110.059C529.123 109.952 528.601 108.133 528.019 106.014C526.575 100.706 526.595 100.321 528.18 97.2605C528.842 95.9763 529.484 94.8848 529.604 94.8419C529.865 94.7563 530.407 96.918 530.668 99.1011C530.949 101.348 530.768 104.859 530.267 107.106C529.805 109.096 529.344 110.359 529.183 110.059Z" fill="#F2BD0D"/>
<path d="M459.476 86.0453C456.225 83.7338 453.777 81.7005 452.393 80.1381L451.49 79.1107L452.092 79.2606C452.654 79.389 458.633 82.471 461.021 83.8836C462.606 84.8039 463.489 84.9109 468.204 84.7825C472.418 84.6755 473.642 84.8253 472.739 85.339C472.278 85.5958 463.228 88.1642 462.767 88.1642C462.586 88.1642 461.101 87.2225 459.476 86.0453Z" fill="#F2BD0D"/>
<path d="M537.57 87.6291C537.029 87.4579 535.082 86.9228 533.256 86.4306C529.143 85.3604 529.243 85.4032 529.243 85.1464C529.243 85.0394 530.889 84.9538 533.216 84.9538C539.577 84.9323 539.236 85.018 544.854 81.8717C547.503 80.3949 549.79 79.1749 549.89 79.1749C550.573 79.1749 549.69 80.1595 546.259 83.2201C544.132 85.1036 541.965 86.9014 541.443 87.2011C540.259 87.886 538.875 88.0358 537.57 87.6291Z" fill="#F2BD0D"/>
<path d="M463.951 80.6517C459.115 79.603 455.082 78.7041 455.022 78.6399C454.821 78.4258 455.443 78.1476 458.252 77.1417C461.663 75.9645 463.389 75.6434 464.753 75.9645C466.9 76.4782 473.06 78.7683 473.241 79.1321C473.321 79.3248 473.482 80.2023 473.542 81.0584C473.682 82.578 473.682 82.5994 473.221 82.578C472.96 82.5566 468.786 81.7005 463.951 80.6517Z" fill="#F2BD0D"/>
<path d="M528.681 81.1868C528.882 79.2606 528.962 79.0679 529.604 78.7469C529.905 78.5971 531.852 77.8694 533.959 77.1203C536.687 76.1357 538.052 75.7505 538.794 75.7505C540.179 75.7505 547.302 78.062 547.302 78.5114C547.302 78.6399 529.263 82.6208 528.722 82.5994C528.581 82.5994 528.561 82.15 528.681 81.1868Z" fill="#F2BD0D"/>
<path d="M499.968 79.4746C499.065 77.1845 498.945 76.2427 498.945 71.4485C498.945 67.4675 498.924 67.1893 498.563 66.9752C497.961 66.6328 497.038 66.7184 496.677 67.1464C496.517 67.3391 495.794 68.8587 495.072 70.5067C494.37 72.1548 493.427 74.2737 492.965 75.2154L492.162 76.9276L491.781 76.0715C491.46 75.3224 491.42 74.5947 491.4 70.5495C491.38 65.3058 491.36 65.2202 489.995 65.1774C489.273 65.156 489.193 65.2202 488.009 67.0394C487.327 68.0668 486.464 69.2439 486.083 69.672C485.26 70.5923 482.11 73.2677 481.989 73.1393C481.849 72.9895 482.692 68.9443 483.113 67.7457C483.795 65.7981 485.501 63.0585 486.303 62.6518C486.745 62.4164 488.491 62.1381 491.119 61.8385C493.386 61.5817 495.995 61.2606 496.938 61.1108C498.082 60.9396 499.787 60.9182 502.155 61.0038C505.847 61.175 514.575 62.1381 515.338 62.4806C515.82 62.6946 517.806 65.7338 518.829 67.8099C519.351 68.8801 519.491 69.4366 519.572 70.8278C519.612 71.7695 519.612 72.54 519.532 72.54C519.471 72.54 518.709 72.1333 517.866 71.6411C516.783 70.9776 516.161 70.4425 515.719 69.779C514.274 67.5531 512.729 65.4556 512.428 65.2844C512.208 65.156 511.847 65.2202 511.385 65.4556L510.683 65.7981V70.6137C510.683 75.0014 510.643 75.515 510.261 76.4568L509.86 77.4841L509.037 76.2427C507.914 74.5305 507.292 73.1179 506.148 69.886C505.626 68.3664 505.064 67.0394 504.924 66.9538C504.463 66.6328 503.439 66.7398 503.118 67.1464C502.857 67.4461 502.777 68.3664 502.717 72.219C502.637 76.3497 502.576 77.0989 502.175 78.276C501.754 79.5816 500.971 81.1012 500.73 81.1012C500.67 81.1012 500.309 80.3735 499.968 79.4746Z" fill="#F2BD0D"/>
<path d="M470.432 70.9776C467.944 68.5804 465.917 66.3331 465.034 64.9419C464.111 63.5293 462.947 60.7683 462.305 58.521C461.804 56.8088 461.743 56.2523 461.743 53.3843C461.723 50.8373 461.804 49.917 462.085 48.8897C462.546 47.3272 463.549 44.9729 464.372 43.5817L464.974 42.533L464.874 45.7434C464.673 52.3356 466.118 57.1512 469.408 60.9824C470.793 62.5876 472.338 63.8504 474.826 65.37C475.99 66.0763 476.592 66.59 476.632 66.8682C476.692 67.4033 473.301 72.8396 472.84 72.9253C472.659 72.9681 471.616 72.1333 470.432 70.9776Z" fill="#F2BD0D"/>
<path d="M527.156 69.5436C526.113 67.8955 525.431 66.6328 525.491 66.4401C525.571 66.2689 526.795 65.3058 528.26 64.2784C531.109 62.288 533.156 60.2975 534.32 58.414C536.065 55.5888 536.908 51.8647 536.928 47.0276C536.928 45.2726 536.988 43.86 537.069 43.86C537.249 43.86 538.072 45.3154 538.875 47.0276C539.737 48.9325 539.978 50.3023 539.958 53.3843C539.938 57.8361 538.915 61.4318 536.647 65.0489C535.022 67.6601 530.347 72.326 529.364 72.326C529.022 72.326 528.541 71.7267 527.156 69.5436Z" fill="#F2BD0D"/>
<path d="M475.308 62.4592C474.385 61.8599 473.141 60.8754 472.539 60.2761C467.883 55.76 466.017 47.6055 468.164 41.2488C469.228 38.1454 470.151 36.904 476.672 29.841C481.929 24.1478 484.457 21.0015 485.421 18.9897C486.444 16.8494 486.645 18.4546 485.701 21.1942C484.558 24.5544 483.093 26.8446 478.297 32.816C474.585 37.4391 473.221 39.4509 471.957 42.2547C470.612 45.2298 470.191 46.9848 470.171 49.7458C470.171 54.0478 471.555 57.1298 475.408 61.4104C476.451 62.5876 477.254 63.5507 477.154 63.5507C477.053 63.5507 476.231 63.0585 475.308 62.4592Z" fill="#F2BD0D"/>
<path d="M525.371 62.7588C525.29 62.6946 525.892 61.8813 526.715 60.9824C532.113 54.9467 532.955 49.0181 529.484 41.6126C528.4 39.3011 527.498 37.9955 523.063 32.3237C517.505 25.1965 516.381 23.3773 515.699 20.231C515.137 17.7055 515.298 17.7055 516.783 20.1026C518.488 22.885 520.876 25.7102 525.732 30.6757C531.149 36.2191 532.353 37.9527 533.357 41.6126C534.079 44.2024 534.239 47.8623 533.778 50.5591C532.895 55.5674 530.828 59.1203 527.337 61.6031C525.511 62.9086 525.511 62.93 525.371 62.7588Z" fill="#F2BD0D"/>
<path d="M205 62.4424H214.522V115.95H232.301V124.376H205V62.4424Z" fill="#3972C6"/>
<path d="M241.456 85.6991H250.893V124.376H241.456V85.6991ZM246.09 78.4524C244.349 78.4524 242.888 77.8626 241.709 76.6829C240.529 75.5032 239.939 74.0427 239.939 72.3012C239.939 70.7283 240.529 69.3801 241.709 68.2566C242.888 67.1331 244.349 66.5713 246.09 66.5713C247.776 66.5713 249.208 67.1331 250.388 68.2566C251.567 69.3801 252.157 70.7283 252.157 72.3012C252.157 74.0427 251.567 75.5032 250.388 76.6829C249.264 77.8626 247.832 78.4524 246.09 78.4524Z" fill="#3972C6"/>
<path d="M263.493 85.6991H272.594V92.693C273.83 90.0527 275.627 88.0585 277.987 86.7102C280.402 85.362 283.155 84.6879 286.244 84.6879C293.154 84.7441 297.395 87.1316 298.968 91.8503C300.204 89.6595 302.058 87.918 304.53 86.626C307.001 85.334 309.613 84.6879 312.366 84.6879C316.411 84.6879 319.472 85.4744 321.551 87.0473C323.629 88.564 325.006 90.7549 325.68 93.6199C326.41 96.4286 326.775 100.22 326.775 104.995V124.376H317.59V104.911C317.59 100.361 317.113 97.1027 316.158 95.1366C315.259 93.1704 313.49 92.1874 310.849 92.1874C307.31 92.1874 304.614 93.3951 302.76 95.8107C300.962 98.1701 300.064 101.288 300.064 105.164V124.376H290.963V103.563C290.963 100.586 290.851 98.3667 290.626 96.9061C290.401 95.4456 289.783 94.294 288.772 93.4513C287.761 92.6087 286.132 92.1874 283.885 92.1874C281.919 92.1874 280.065 92.7772 278.324 93.9569C276.638 95.1366 275.262 96.7376 274.195 98.7599C273.184 100.726 272.678 102.861 272.678 105.164V124.376H263.493V85.6991Z" fill="#3972C6"/>
<path d="M361.295 125.219C358.15 125.219 355.313 124.46 352.785 122.944C350.313 121.371 348.6 119.573 347.645 117.551L347.476 124.376H338.713V62.4424H347.645V86.2889L347.223 92.8615C348.178 90.6145 350.032 88.7045 352.785 87.1316C355.594 85.5025 358.627 84.6879 361.885 84.6879C365.705 84.6879 369.02 85.5587 371.828 87.3001C374.693 88.9854 376.884 91.3728 378.401 94.4625C379.918 97.496 380.676 101.035 380.676 105.08C380.676 109.18 379.777 112.748 377.98 115.781C376.238 118.815 373.879 121.146 370.901 122.775C367.98 124.404 364.778 125.219 361.295 125.219ZM359.779 117.635C363.43 117.635 366.239 116.483 368.205 114.18C370.171 111.821 371.154 108.787 371.154 105.08C371.154 101.316 370.171 98.2824 368.205 95.9792C366.295 93.6198 363.486 92.4402 359.779 92.4402C356.577 92.4402 353.88 93.5637 351.689 95.8107C349.499 98.0015 348.403 100.895 348.403 104.49V105.08C348.403 107.495 348.909 109.658 349.92 111.568C350.987 113.478 352.364 114.967 354.049 116.034C355.79 117.101 357.7 117.635 359.779 117.635Z" fill="#3972C6"/>
<path d="M407.488 125.219C404.005 125.219 400.775 124.404 397.797 122.775C394.876 121.09 392.517 118.73 390.719 115.697C388.978 112.607 388.107 109.012 388.107 104.911C388.107 100.867 388.865 97.3274 390.382 94.294C391.955 91.2605 394.174 88.9011 397.039 87.2158C399.904 85.5306 403.274 84.6879 407.151 84.6879C409.398 84.6879 411.504 85.0812 413.47 85.8676C415.436 86.6541 417.094 87.6371 418.442 88.8168C419.79 89.9403 420.689 91.0639 421.138 92.1874L421.307 85.6991H429.986V124.376H421.391L421.222 117.551C420.268 119.573 418.526 121.371 415.998 122.944C413.47 124.46 410.633 125.219 407.488 125.219ZM409.004 117.635C412.206 117.635 414.903 116.539 417.094 114.349C419.284 112.102 420.38 109.18 420.38 105.585V104.995C420.38 102.58 419.874 100.417 418.863 98.5071C417.852 96.5972 416.476 95.1085 414.734 94.0412C412.993 92.9738 411.083 92.4402 409.004 92.4402C405.409 92.4402 402.628 93.6198 400.662 95.9792C398.696 98.2824 397.713 101.288 397.713 104.995C397.713 108.759 398.668 111.821 400.578 114.18C402.544 116.483 405.353 117.635 409.004 117.635Z" fill="#3972C6"/>
<path d="M570.757 66.106H581.458L599.996 108.659L618.618 66.106H629.235L600.67 128.04H599.406L570.757 66.106Z" fill="#C6394B"/>
<path d="M634.553 89.3627H643.991V128.04H634.553V89.3627ZM639.188 82.1161C637.446 82.1161 635.986 81.5262 634.806 80.3465C633.626 79.1668 633.036 77.7063 633.036 75.9648C633.036 74.3919 633.626 73.0437 634.806 71.9202C635.986 70.7967 637.446 70.2349 639.188 70.2349C640.873 70.2349 642.305 70.7967 643.485 71.9202C644.665 73.0437 645.255 74.3919 645.255 75.9648C645.255 77.7063 644.665 79.1668 643.485 80.3465C642.362 81.5262 640.929 82.1161 639.188 82.1161Z" fill="#C6394B"/>
<path d="M674.876 128.882C670.269 128.882 666.421 127.983 663.332 126.186C660.242 124.332 657.967 121.888 656.506 118.855C655.046 115.765 654.316 112.395 654.316 108.743C654.316 104.642 655.158 101.047 656.843 97.9576C658.585 94.8679 660.972 92.5085 664.006 90.8795C667.039 89.1942 670.466 88.3516 674.286 88.3516C680.241 88.3516 684.65 90.0087 687.515 93.3231C690.436 96.5813 691.897 101.188 691.897 107.142C691.897 108.659 691.813 110.232 691.644 111.861H663.837C664.455 115.288 665.663 117.759 667.461 119.276C669.314 120.793 671.87 121.551 675.129 121.551C677.825 121.551 680.044 121.327 681.785 120.877C683.527 120.428 685.128 119.81 686.588 119.023L689.369 125.512C687.965 126.411 686.055 127.197 683.639 127.871C681.224 128.545 678.303 128.882 674.876 128.882ZM683.049 105.541C683.106 102.058 682.347 99.6148 680.774 98.2104C679.201 96.7498 676.954 96.0195 674.033 96.0195C668.135 96.0195 664.736 99.1934 663.837 105.541H683.049Z" fill="#C6394B"/>
</svg>
